<?xml version="1.0" encoding="utf-8"?>
<!-- Generator: Adobe Illustrator 24.0.3, SVG Export Plug-In . SVG Version: 6.00 Build 0)  -->
<svg version="1.1" id="Layer_1" xmlns="http://www.w3.org/2000/svg" xmlns:xlink="http://www.w3.org/1999/xlink" x="0px" y="0px"
	 viewBox="0 0 102.8 134" style="enable-background:new 0 0 102.8 134;" xml:space="preserve">
<style type="text/css">
	.st0{fill:#FFFEF5;}
	.st1{fill:#231F20;}
</style>
<rect x="-0.3" y="-0.4" class="st0" width="103" height="134.1"/>
<g>
	<g>
		<path class="st1" d="M99.9,17.1H2.3V17c0,0-0.5-1.1-0.5-2.3s0.4-2.4,0.4-2.4v-0.1h97.7v0.1c0,0,0.4,1.2,0.4,2.4S99.8,17,99.8,17
			L99.9,17.1z M2.6,16.7h97c0.1-0.3,0.4-1.1,0.4-2.1c0-0.9-0.3-1.8-0.4-2.2H2.5c-0.1,0.3-0.4,1.2-0.4,2.2S2.5,16.4,2.6,16.7z"/>
	</g>
	<g>
		<path class="st1" d="M101,18.5H1.3l-0.1-0.1c0-0.1-0.9-1.8-0.9-3.9s0.8-4,0.8-4.1l0.1-0.1H101l0.1,0.1c0,0.1,0.9,2,0.9,4.1
			s-0.9,3.9-1,3.9V18.5z M1.5,18.2h99.2c0.2-0.4,0.9-1.9,0.9-3.6s-0.6-3.4-0.8-3.8H1.5c-0.2,0.4-0.8,2.1-0.8,3.8
			C0.7,16.2,1.4,17.7,1.5,18.2z"/>
	</g>
	<g>
		<rect x="2.8" y="12.3" class="st1" width="0.4" height="4.5"/>
	</g>
	<g>
		<rect x="3.7" y="12.3" class="st1" width="0.4" height="4.5"/>
	</g>
	<g>
		<rect x="4.6" y="12.4" class="st1" width="0.4" height="4.5"/>
	</g>
	<g>
		<rect x="5.5" y="12.4" class="st1" width="0.4" height="4.5"/>
	</g>
	<g>
		<rect x="6.4" y="12.4" class="st1" width="0.4" height="4.5"/>
	</g>
	<g>
		<rect x="7.3" y="12.4" class="st1" width="0.4" height="4.5"/>
	</g>
	<g>
		<rect x="8.2" y="12.4" class="st1" width="0.4" height="4.5"/>
	</g>
	<g>
		<rect x="9.1" y="12.4" class="st1" width="0.4" height="4.5"/>
	</g>
	<g>
		<rect x="10" y="12.3" class="st1" width="0.4" height="4.5"/>
	</g>
	<g>
		<rect x="10.9" y="12.3" class="st1" width="0.4" height="4.5"/>
	</g>
	<g>
		<rect x="11.8" y="12.4" class="st1" width="0.4" height="4.5"/>
	</g>
	<g>
		<rect x="12.7" y="12.4" class="st1" width="0.4" height="4.5"/>
	</g>
	<g>
		<rect x="13.6" y="12.4" class="st1" width="0.4" height="4.5"/>
	</g>
	<g>
		<rect x="14.5" y="12.4" class="st1" width="0.4" height="4.5"/>
	</g>
	<g>
		<rect x="15.4" y="12.4" class="st1" width="0.4" height="4.5"/>
	</g>
	<g>
		<rect x="16.3" y="12.4" class="st1" width="0.4" height="4.5"/>
	</g>
	<g>
		<rect x="17.1" y="12.4" class="st1" width="0.4" height="4.5"/>
	</g>
	<g>
		<rect x="18" y="12.4" class="st1" width="0.4" height="4.5"/>
	</g>
	<g>
		<rect x="18.9" y="12.4" class="st1" width="0.4" height="4.5"/>
	</g>
	<g>
		<rect x="19.8" y="12.4" class="st1" width="0.4" height="4.5"/>
	</g>
	<g>
		<rect x="20.7" y="12.4" class="st1" width="0.4" height="4.5"/>
	</g>
	<g>
		<rect x="21.6" y="12.4" class="st1" width="0.4" height="4.5"/>
	</g>
	<g>
		<rect x="22.5" y="12.4" class="st1" width="0.4" height="4.5"/>
	</g>
	<g>
		<rect x="23.4" y="12.4" class="st1" width="0.4" height="4.5"/>
	</g>
	<g>
		<rect x="24.3" y="12.4" class="st1" width="0.4" height="4.5"/>
	</g>
	<g>
		<rect x="25.2" y="12.4" class="st1" width="0.4" height="4.5"/>
	</g>
	<g>
		<rect x="26.1" y="12.4" class="st1" width="0.4" height="4.5"/>
	</g>
	<g>
		<rect x="27" y="12.4" class="st1" width="0.4" height="4.5"/>
	</g>
	<g>
		<rect x="27.9" y="12.4" class="st1" width="0.4" height="4.5"/>
	</g>
	<g>
		<rect x="28.8" y="12.4" class="st1" width="0.4" height="4.5"/>
	</g>
	<g>
		<rect x="29.7" y="12.4" class="st1" width="0.4" height="4.5"/>
	</g>
	<g>
		<rect x="30.6" y="12.4" class="st1" width="0.4" height="4.5"/>
	</g>
	<g>
		<rect x="31.5" y="12.3" class="st1" width="0.4" height="4.5"/>
	</g>
	<g>
		<rect x="32.4" y="12.3" class="st1" width="0.4" height="4.5"/>
	</g>
	<g>
		<rect x="33.3" y="12.3" class="st1" width="0.4" height="4.5"/>
	</g>
	<g>
		<rect x="34.2" y="12.4" class="st1" width="0.4" height="4.5"/>
	</g>
	<g>
		<rect x="35.1" y="12.3" class="st1" width="0.4" height="4.5"/>
	</g>
	<g>
		<rect x="36" y="12.3" class="st1" width="0.4" height="4.5"/>
	</g>
	<g>
		<rect x="36.8" y="12.3" class="st1" width="0.4" height="4.5"/>
	</g>
	<g>
		<rect x="37.7" y="12.3" class="st1" width="0.4" height="4.5"/>
	</g>
	<g>
		<rect x="38.6" y="12.3" class="st1" width="0.4" height="4.5"/>
	</g>
	<g>
		<rect x="39.5" y="12.3" class="st1" width="0.4" height="4.5"/>
	</g>
	<g>
		<rect x="40.4" y="12.3" class="st1" width="0.4" height="4.5"/>
	</g>
	<g>
		<rect x="41.3" y="12.3" class="st1" width="0.4" height="4.5"/>
	</g>
	<g>
		<rect x="42.2" y="12.3" class="st1" width="0.4" height="4.5"/>
	</g>
	<g>
		<rect x="43.1" y="12.3" class="st1" width="0.4" height="4.5"/>
	</g>
	<g>
		<rect x="44" y="12.3" class="st1" width="0.4" height="4.5"/>
	</g>
	<g>
		<rect x="44.9" y="12.3" class="st1" width="0.4" height="4.5"/>
	</g>
	<g>
		<rect x="45.8" y="12.3" class="st1" width="0.4" height="4.5"/>
	</g>
	<g>
		<rect x="46.7" y="12.3" class="st1" width="0.4" height="4.5"/>
	</g>
	<g>
		<rect x="47.6" y="12.4" class="st1" width="0.4" height="4.5"/>
	</g>
	<g>
		<rect x="48.5" y="12.4" class="st1" width="0.4" height="4.5"/>
	</g>
	<g>
		<rect x="49.4" y="12.4" class="st1" width="0.4" height="4.5"/>
	</g>
	<g>
		<rect x="50.3" y="12.4" class="st1" width="0.4" height="4.5"/>
	</g>
	<g>
		<rect x="51.2" y="12.4" class="st1" width="0.4" height="4.5"/>
	</g>
	<g>
		<rect x="52.1" y="12.4" class="st1" width="0.4" height="4.5"/>
	</g>
	<g>
		<rect x="53" y="12.3" class="st1" width="0.4" height="4.5"/>
	</g>
	<g>
		<rect x="53.9" y="12.3" class="st1" width="0.4" height="4.5"/>
	</g>
	<g>
		<rect x="54.8" y="12.4" class="st1" width="0.4" height="4.5"/>
	</g>
	<g>
		<rect x="55.7" y="12.4" class="st1" width="0.4" height="4.5"/>
	</g>
	<g>
		<rect x="56.5" y="12.4" class="st1" width="0.4" height="4.5"/>
	</g>
	<g>
		<rect x="57.4" y="12.4" class="st1" width="0.4" height="4.5"/>
	</g>
	<g>
		<rect x="58.3" y="12.4" class="st1" width="0.4" height="4.5"/>
	</g>
	<g>
		<rect x="59.2" y="12.4" class="st1" width="0.4" height="4.5"/>
	</g>
	<g>
		<rect x="60.1" y="12.3" class="st1" width="0.4" height="4.5"/>
	</g>
	<g>
		<rect x="61" y="12.3" class="st1" width="0.4" height="4.5"/>
	</g>
	<g>
		<rect x="61.9" y="12.4" class="st1" width="0.4" height="4.5"/>
	</g>
	<g>
		<rect x="62.8" y="12.4" class="st1" width="0.4" height="4.5"/>
	</g>
	<g>
		<rect x="63.7" y="12.3" class="st1" width="0.4" height="4.5"/>
	</g>
	<g>
		<rect x="64.6" y="12.3" class="st1" width="0.4" height="4.5"/>
	</g>
	<g>
		<rect x="65.5" y="12.3" class="st1" width="0.4" height="4.5"/>
	</g>
	<g>
		<rect x="66.4" y="12.3" class="st1" width="0.4" height="4.5"/>
	</g>
	<g>
		<rect x="67.3" y="12.3" class="st1" width="0.4" height="4.5"/>
	</g>
	<g>
		<rect x="68.2" y="12.3" class="st1" width="0.4" height="4.5"/>
	</g>
	<g>
		<rect x="69.1" y="12.4" class="st1" width="0.4" height="4.5"/>
	</g>
	<g>
		<rect x="70" y="12.4" class="st1" width="0.4" height="4.5"/>
	</g>
	<g>
		<rect x="70.9" y="12.3" class="st1" width="0.4" height="4.5"/>
	</g>
	<g>
		<rect x="71.8" y="12.3" class="st1" width="0.4" height="4.5"/>
	</g>
	<g>
		<rect x="72.7" y="12.3" class="st1" width="0.4" height="4.5"/>
	</g>
	<g>
		<rect x="73.6" y="12.3" class="st1" width="0.4" height="4.5"/>
	</g>
	<g>
		<rect x="74.5" y="12.4" class="st1" width="0.4" height="4.5"/>
	</g>
	<g>
		<rect x="75.3" y="12.4" class="st1" width="0.4" height="4.5"/>
	</g>
	<g>
		<rect x="76.2" y="12.4" class="st1" width="0.4" height="4.5"/>
	</g>
	<g>
		<rect x="77.1" y="12.4" class="st1" width="0.4" height="4.5"/>
	</g>
	<g>
		<rect x="78" y="12.4" class="st1" width="0.4" height="4.5"/>
	</g>
	<g>
		<rect x="78.9" y="12.4" class="st1" width="0.4" height="4.5"/>
	</g>
	<g>
		<rect x="79.8" y="12.4" class="st1" width="0.4" height="4.5"/>
	</g>
	<g>
		<rect x="80.7" y="12.4" class="st1" width="0.4" height="4.5"/>
	</g>
	<g>
		<rect x="81.6" y="12.3" class="st1" width="0.4" height="4.5"/>
	</g>
	<g>
		<rect x="82.5" y="12.4" class="st1" width="0.4" height="4.5"/>
	</g>
	<g>
		<rect x="83.4" y="12.4" class="st1" width="0.4" height="4.5"/>
	</g>
	<g>
		<rect x="84.3" y="12.4" class="st1" width="0.4" height="4.5"/>
	</g>
	<g>
		<rect x="85.2" y="12.4" class="st1" width="0.4" height="4.5"/>
	</g>
	<g>
		<rect x="86.1" y="12.4" class="st1" width="0.4" height="4.5"/>
	</g>
	<g>
		<rect x="87" y="12.4" class="st1" width="0.4" height="4.5"/>
	</g>
	<g>
		<rect x="87.9" y="12.4" class="st1" width="0.4" height="4.5"/>
	</g>
	<g>
		<rect x="88.8" y="12.3" class="st1" width="0.4" height="4.5"/>
	</g>
	<g>
		<rect x="89.7" y="12.3" class="st1" width="0.4" height="4.5"/>
	</g>
	<g>
		<rect x="90.6" y="12.3" class="st1" width="0.4" height="4.5"/>
	</g>
	<g>
		<rect x="91.5" y="12.3" class="st1" width="0.4" height="4.5"/>
	</g>
	<g>
		<rect x="92.4" y="12.3" class="st1" width="0.4" height="4.5"/>
	</g>
	<g>
		<rect x="93.3" y="12.3" class="st1" width="0.4" height="4.5"/>
	</g>
	<g>
		<rect x="94.2" y="12.3" class="st1" width="0.4" height="4.5"/>
	</g>
	<g>
		<rect x="95" y="12.3" class="st1" width="0.4" height="4.5"/>
	</g>
	<g>
		<rect x="95.9" y="12.3" class="st1" width="0.4" height="4.5"/>
	</g>
	<g>
		<rect x="96.8" y="12.3" class="st1" width="0.4" height="4.5"/>
	</g>
	<g>
		<rect x="97.7" y="12.3" class="st1" width="0.4" height="4.5"/>
	</g>
	<g>
		<rect x="98.6" y="12.3" class="st1" width="0.4" height="4.5"/>
	</g>
	<g>
		<rect x="2.3" y="16.3" class="st1" width="97.3" height="0.8"/>
	</g>
</g>
<g>
	<g>
		<path class="st1" d="M99.7,119.5H2.2l-0.1-0.1c0,0-0.5-1.1-0.5-2.3c0-1.2,0.4-2.4,0.4-2.4v-0.1h97.7v0.1c0,0,0.4,1.2,0.4,2.4
			C100.1,118.3,99.6,119.4,99.7,119.5L99.7,119.5z M2.4,119.1h97c0.1-0.3,0.4-1.1,0.4-2.1c0-0.9-0.3-1.8-0.4-2.2h-97
			C2.3,115.1,2,116,2,117S2.3,118.8,2.4,119.1z"/>
	</g>
	<g>
		<path class="st1" d="M100.9,121H1.2l-0.1-0.1c0-0.1-0.9-1.8-0.9-3.9s0.8-4,0.8-4.1l0.1-0.1h99.8l0.1,0.1c0,0.1,0.9,2,0.9,4.1
			S101,120.9,100.9,121L100.9,121z M1.4,120.6h99.2c0.2-0.4,0.9-1.9,0.9-3.6s-0.6-3.4-0.8-3.8H1.4c-0.2,0.4-0.8,2.1-0.8,3.8
			C0.6,118.7,1.2,120.2,1.4,120.6z"/>
	</g>
	<g>
		<rect x="2.7" y="114.7" class="st1" width="0.4" height="4.5"/>
	</g>
	<g>
		<rect x="3.6" y="114.8" class="st1" width="0.4" height="4.5"/>
	</g>
	<g>
		<rect x="4.5" y="114.8" class="st1" width="0.4" height="4.5"/>
	</g>
	<g>
		<rect x="5.4" y="114.8" class="st1" width="0.4" height="4.5"/>
	</g>
	<g>
		<rect x="6.3" y="114.8" class="st1" width="0.4" height="4.5"/>
	</g>
	<g>
		<rect x="7.2" y="114.8" class="st1" width="0.4" height="4.5"/>
	</g>
	<g>
		<rect x="8.1" y="114.8" class="st1" width="0.4" height="4.5"/>
	</g>
	<g>
		<rect x="9" y="114.8" class="st1" width="0.4" height="4.5"/>
	</g>
	<g>
		<rect x="9.9" y="114.7" class="st1" width="0.4" height="4.5"/>
	</g>
	<g>
		<rect x="10.7" y="114.7" class="st1" width="0.4" height="4.5"/>
	</g>
	<g>
		<rect x="11.6" y="114.8" class="st1" width="0.4" height="4.5"/>
	</g>
	<g>
		<rect x="12.5" y="114.8" class="st1" width="0.4" height="4.5"/>
	</g>
	<g>
		<rect x="13.4" y="114.8" class="st1" width="0.4" height="4.5"/>
	</g>
	<g>
		<rect x="14.3" y="114.8" class="st1" width="0.4" height="4.5"/>
	</g>
	<g>
		<rect x="15.2" y="114.8" class="st1" width="0.4" height="4.5"/>
	</g>
	<g>
		<rect x="16.1" y="114.8" class="st1" width="0.4" height="4.5"/>
	</g>
	<g>
		<rect x="17" y="114.8" class="st1" width="0.4" height="4.5"/>
	</g>
	<g>
		<rect x="17.9" y="114.8" class="st1" width="0.4" height="4.5"/>
	</g>
	<g>
		<rect x="18.8" y="114.9" class="st1" width="0.4" height="4.5"/>
	</g>
	<g>
		<rect x="19.7" y="114.9" class="st1" width="0.4" height="4.5"/>
	</g>
	<g>
		<rect x="20.6" y="114.8" class="st1" width="0.4" height="4.5"/>
	</g>
	<g>
		<rect x="21.5" y="114.9" class="st1" width="0.4" height="4.5"/>
	</g>
	<g>
		<rect x="22.4" y="114.8" class="st1" width="0.4" height="4.5"/>
	</g>
	<g>
		<rect x="23.3" y="114.9" class="st1" width="0.4" height="4.5"/>
	</g>
	<g>
		<rect x="24.2" y="114.8" class="st1" width="0.4" height="4.5"/>
	</g>
	<g>
		<rect x="25.1" y="114.8" class="st1" width="0.4" height="4.5"/>
	</g>
	<g>
		<rect x="26" y="114.9" class="st1" width="0.4" height="4.5"/>
	</g>
	<g>
		<rect x="26.9" y="114.9" class="st1" width="0.4" height="4.5"/>
	</g>
	<g>
		<rect x="27.8" y="114.8" class="st1" width="0.4" height="4.5"/>
	</g>
	<g>
		<rect x="28.7" y="114.8" class="st1" width="0.4" height="4.5"/>
	</g>
	<g>
		<rect x="29.6" y="114.8" class="st1" width="0.4" height="4.5"/>
	</g>
	<g>
		<rect x="30.4" y="114.8" class="st1" width="0.4" height="4.5"/>
	</g>
	<g>
		<rect x="31.3" y="114.7" class="st1" width="0.4" height="4.5"/>
	</g>
	<g>
		<rect x="32.2" y="114.7" class="st1" width="0.4" height="4.5"/>
	</g>
	<g>
		<rect x="33.1" y="114.8" class="st1" width="0.4" height="4.5"/>
	</g>
	<g>
		<rect x="34" y="114.8" class="st1" width="0.4" height="4.5"/>
	</g>
	<g>
		<rect x="34.9" y="114.8" class="st1" width="0.4" height="4.5"/>
	</g>
	<g>
		<rect x="35.8" y="114.8" class="st1" width="0.4" height="4.5"/>
	</g>
	<g>
		<rect x="36.7" y="114.8" class="st1" width="0.4" height="4.5"/>
	</g>
	<g>
		<rect x="37.6" y="114.8" class="st1" width="0.4" height="4.5"/>
	</g>
	<g>
		<rect x="38.5" y="114.7" class="st1" width="0.4" height="4.5"/>
	</g>
	<g>
		<rect x="39.4" y="114.7" class="st1" width="0.4" height="4.5"/>
	</g>
	<g>
		<rect x="40.3" y="114.8" class="st1" width="0.4" height="4.5"/>
	</g>
	<g>
		<rect x="41.2" y="114.8" class="st1" width="0.4" height="4.5"/>
	</g>
	<g>
		<rect x="42.1" y="114.7" class="st1" width="0.4" height="4.5"/>
	</g>
	<g>
		<rect x="43" y="114.8" class="st1" width="0.4" height="4.5"/>
	</g>
	<g>
		<rect x="43.9" y="114.7" class="st1" width="0.4" height="4.5"/>
	</g>
	<g>
		<rect x="44.8" y="114.8" class="st1" width="0.4" height="4.5"/>
	</g>
	<g>
		<rect x="45.7" y="114.8" class="st1" width="0.4" height="4.5"/>
	</g>
	<g>
		<rect x="46.6" y="114.8" class="st1" width="0.4" height="4.5"/>
	</g>
	<g>
		<rect x="47.5" y="114.8" class="st1" width="0.4" height="4.5"/>
	</g>
	<g>
		<rect x="48.4" y="114.8" class="st1" width="0.4" height="4.5"/>
	</g>
	<g>
		<rect x="49.2" y="114.8" class="st1" width="0.4" height="4.5"/>
	</g>
	<g>
		<rect x="50.1" y="114.8" class="st1" width="0.4" height="4.5"/>
	</g>
	<g>
		<rect x="51" y="114.8" class="st1" width="0.4" height="4.5"/>
	</g>
	<g>
		<rect x="51.9" y="114.8" class="st1" width="0.4" height="4.5"/>
	</g>
	<g>
		<rect x="52.8" y="114.8" class="st1" width="0.4" height="4.5"/>
	</g>
	<g>
		<rect x="53.7" y="114.8" class="st1" width="0.4" height="4.5"/>
	</g>
	<g>
		<rect x="54.6" y="114.8" class="st1" width="0.4" height="4.5"/>
	</g>
	<g>
		<rect x="55.5" y="114.8" class="st1" width="0.4" height="4.5"/>
	</g>
	<g>
		<rect x="56.4" y="114.8" class="st1" width="0.4" height="4.5"/>
	</g>
	<g>
		<rect x="57.3" y="114.8" class="st1" width="0.4" height="4.5"/>
	</g>
	<g>
		<rect x="58.2" y="114.8" class="st1" width="0.4" height="4.5"/>
	</g>
	<g>
		<rect x="59.1" y="114.8" class="st1" width="0.4" height="4.5"/>
	</g>
	<g>
		<rect x="60" y="114.7" class="st1" width="0.4" height="4.5"/>
	</g>
	<g>
		<rect x="60.9" y="114.7" class="st1" width="0.4" height="4.5"/>
	</g>
	<g>
		<rect x="61.8" y="114.8" class="st1" width="0.4" height="4.5"/>
	</g>
	<g>
		<rect x="62.7" y="114.8" class="st1" width="0.4" height="4.5"/>
	</g>
	<g>
		<rect x="63.6" y="114.8" class="st1" width="0.4" height="4.5"/>
	</g>
	<g>
		<rect x="64.5" y="114.8" class="st1" width="0.4" height="4.5"/>
	</g>
	<g>
		<rect x="65.4" y="114.8" class="st1" width="0.4" height="4.5"/>
	</g>
	<g>
		<rect x="66.3" y="114.8" class="st1" width="0.4" height="4.5"/>
	</g>
	<g>
		<rect x="67.2" y="114.7" class="st1" width="0.4" height="4.5"/>
	</g>
	<g>
		<rect x="68.1" y="114.7" class="st1" width="0.4" height="4.5"/>
	</g>
	<g>
		<rect x="68.9" y="114.8" class="st1" width="0.4" height="4.5"/>
	</g>
	<g>
		<rect x="69.8" y="114.8" class="st1" width="0.4" height="4.5"/>
	</g>
	<g>
		<rect x="70.7" y="114.8" class="st1" width="0.4" height="4.5"/>
	</g>
	<g>
		<rect x="71.6" y="114.8" class="st1" width="0.4" height="4.5"/>
	</g>
	<g>
		<rect x="72.5" y="114.8" class="st1" width="0.4" height="4.5"/>
	</g>
	<g>
		<rect x="73.4" y="114.8" class="st1" width="0.4" height="4.5"/>
	</g>
	<g>
		<rect x="74.3" y="114.8" class="st1" width="0.4" height="4.5"/>
	</g>
	<g>
		<rect x="75.2" y="114.8" class="st1" width="0.4" height="4.5"/>
	</g>
	<g>
		<rect x="76.1" y="114.8" class="st1" width="0.4" height="4.5"/>
	</g>
	<g>
		<rect x="77" y="114.9" class="st1" width="0.4" height="4.5"/>
	</g>
	<g>
		<rect x="77.9" y="114.8" class="st1" width="0.4" height="4.5"/>
	</g>
	<g>
		<rect x="78.8" y="114.8" class="st1" width="0.4" height="4.5"/>
	</g>
	<g>
		<rect x="79.7" y="114.8" class="st1" width="0.4" height="4.5"/>
	</g>
	<g>
		<rect x="80.6" y="114.8" class="st1" width="0.4" height="4.5"/>
	</g>
	<g>
		<rect x="81.5" y="114.8" class="st1" width="0.4" height="4.5"/>
	</g>
	<g>
		<rect x="82.4" y="114.8" class="st1" width="0.4" height="4.5"/>
	</g>
	<g>
		<rect x="83.3" y="114.8" class="st1" width="0.4" height="4.5"/>
	</g>
	<g>
		<rect x="84.2" y="114.8" class="st1" width="0.4" height="4.5"/>
	</g>
	<g>
		<rect x="85.1" y="114.8" class="st1" width="0.4" height="4.5"/>
	</g>
	<g>
		<rect x="86" y="114.8" class="st1" width="0.4" height="4.5"/>
	</g>
	<g>
		<rect x="86.9" y="114.8" class="st1" width="0.4" height="4.5"/>
	</g>
	<g>
		<rect x="87.8" y="114.8" class="st1" width="0.4" height="4.5"/>
	</g>
	<g>
		<rect x="88.6" y="114.7" class="st1" width="0.4" height="4.5"/>
	</g>
	<g>
		<rect x="89.5" y="114.7" class="st1" width="0.4" height="4.5"/>
	</g>
	<g>
		<rect x="90.4" y="114.8" class="st1" width="0.4" height="4.5"/>
	</g>
	<g>
		<rect x="91.3" y="114.8" class="st1" width="0.4" height="4.5"/>
	</g>
	<g>
		<rect x="92.2" y="114.7" class="st1" width="0.4" height="4.5"/>
	</g>
	<g>
		<rect x="93.1" y="114.7" class="st1" width="0.4" height="4.5"/>
	</g>
	<g>
		<rect x="94" y="114.7" class="st1" width="0.4" height="4.5"/>
	</g>
	<g>
		<rect x="94.9" y="114.7" class="st1" width="0.4" height="4.5"/>
	</g>
	<g>
		<rect x="95.8" y="114.7" class="st1" width="0.4" height="4.5"/>
	</g>
	<g>
		<rect x="96.7" y="114.7" class="st1" width="0.4" height="4.5"/>
	</g>
	<g>
		<rect x="97.6" y="114.7" class="st1" width="0.4" height="4.5"/>
	</g>
	<g>
		<rect x="98.5" y="114.8" class="st1" width="0.4" height="4.5"/>
	</g>
	<g>
		<rect x="2.2" y="118.7" class="st1" width="97.5" height="0.8"/>
	</g>
</g>
<g>
	<g>
		<path class="st1" d="M14.3,131c-1.2,0-2.4-0.4-2.4-0.4h-0.1v-9.7h0.4v9.4c0.3,0.1,1.2,0.4,2.2,0.4c0.9,0,1.8-0.3,2.1-0.4v-9.4h0.4
			v9.6l-0.1,0.1C16.6,130.5,15.5,131,14.3,131z"/>
	</g>
	<g>
		<rect x="16.4" y="18.4" class="st1" width="0.4" height="94.7"/>
	</g>
	<g>
		<path class="st1" d="M16.8,10.5h-0.4V3.8c-0.3-0.1-1.1-0.4-2.1-0.4c-0.9,0-1.8,0.3-2.2,0.4v6.7h-0.4v-7h0.1c0,0,1.2-0.4,2.4-0.4
			s2.3,0.5,2.3,0.5l0.1,0.1v6.8H16.8z"/>
	</g>
	<g>
		<rect x="11.8" y="18.4" class="st1" width="0.4" height="94.7"/>
	</g>
	<g>
		<path class="st1" d="M14.2,132.4c-2.1,0-4-0.8-4.1-0.8l-0.1-0.1v-10.7h0.4v10.5c0.4,0.2,2.1,0.8,3.8,0.8s3.2-0.6,3.6-0.8v-10.4
			h0.4v10.7l-0.1,0.1C18,131.5,16.3,132.4,14.2,132.4z"/>
	</g>
	<g>
		<rect x="17.8" y="18.4" class="st1" width="0.4" height="94.5"/>
	</g>
	<g>
		<path class="st1" d="M18.2,10.5h-0.4V2.7c-0.4-0.2-1.9-0.9-3.6-0.9s-3.4,0.6-3.8,0.8v7.8H10v-8l0.1-0.1c0.1,0,2-0.9,4.1-0.9
			s3.9,0.9,3.9,1l0.1,0.1V10.5z"/>
	</g>
	<g>
		<rect x="10" y="18.6" class="st1" width="0.4" height="94.2"/>
	</g>
	<g>
		<rect x="12" y="100.2" class="st1" width="4.5" height="0.4"/>
	</g>
	<g>
		<rect x="12" y="99.3" class="st1" width="4.5" height="0.4"/>
	</g>
	<g>
		<rect x="12" y="98.4" class="st1" width="4.5" height="0.4"/>
	</g>
	<g>
		<rect x="12.1" y="97.6" class="st1" width="4.5" height="0.4"/>
	</g>
	<g>
		<rect x="12" y="96.7" class="st1" width="4.5" height="0.4"/>
	</g>
	<g>
		<rect x="12" y="95.8" class="st1" width="4.5" height="0.4"/>
	</g>
	<g>
		<rect x="12" y="94.9" class="st1" width="4.5" height="0.4"/>
	</g>
	<g>
		<rect x="12" y="94" class="st1" width="4.5" height="0.4"/>
	</g>
	<g>
		<rect x="12" y="93.1" class="st1" width="4.5" height="0.4"/>
	</g>
	<g>
		<rect x="12" y="92.2" class="st1" width="4.5" height="0.4"/>
	</g>
	<g>
		<rect x="12" y="91.3" class="st1" width="4.5" height="0.4"/>
	</g>
	<g>
		<rect x="12.1" y="90.4" class="st1" width="4.5" height="0.4"/>
	</g>
	<g>
		<rect x="12" y="89.5" class="st1" width="4.5" height="0.4"/>
	</g>
	<g>
		<rect x="12" y="88.6" class="st1" width="4.5" height="0.4"/>
	</g>
	<g>
		<rect x="12" y="87.7" class="st1" width="4.5" height="0.4"/>
	</g>
	<g>
		<rect x="12" y="86.8" class="st1" width="4.5" height="0.4"/>
	</g>
	<g>
		<rect x="12" y="85.9" class="st1" width="4.5" height="0.4"/>
	</g>
	<g>
		<rect x="12" y="85" class="st1" width="4.5" height="0.4"/>
	</g>
	<g>
		<rect x="12.1" y="84.1" class="st1" width="4.5" height="0.4"/>
	</g>
	<g>
		<rect x="12.1" y="83.2" class="st1" width="4.5" height="0.4"/>
	</g>
	<g>
		<rect x="12.1" y="82.3" class="st1" width="4.5" height="0.4"/>
	</g>
	<g>
		<rect x="12.1" y="81.4" class="st1" width="4.5" height="0.4"/>
	</g>
	<g>
		<rect x="12.1" y="80.5" class="st1" width="4.5" height="0.4"/>
	</g>
	<g>
		<rect x="12.1" y="79.6" class="st1" width="4.5" height="0.4"/>
	</g>
	<g>
		<rect x="12" y="78.8" class="st1" width="4.5" height="0.4"/>
	</g>
	<g>
		<rect x="12" y="77.9" class="st1" width="4.5" height="0.4"/>
	</g>
	<g>
		<rect x="12.1" y="77" class="st1" width="4.5" height="0.4"/>
	</g>
	<g>
		<rect x="12.1" y="76.1" class="st1" width="4.5" height="0.4"/>
	</g>
	<g>
		<rect x="12.1" y="75.2" class="st1" width="4.5" height="0.4"/>
	</g>
	<g>
		<rect x="12.1" y="74.3" class="st1" width="4.5" height="0.4"/>
	</g>
	<g>
		<rect x="12.1" y="73.4" class="st1" width="4.5" height="0.4"/>
	</g>
	<g>
		<rect x="12.1" y="72.5" class="st1" width="4.5" height="0.4"/>
	</g>
	<g>
		<rect x="11.9" y="71.6" class="st1" width="4.5" height="0.4"/>
	</g>
	<g>
		<rect x="12" y="70.7" class="st1" width="4.5" height="0.4"/>
	</g>
	<g>
		<rect x="12" y="69.8" class="st1" width="4.5" height="0.4"/>
	</g>
	<g>
		<rect x="12" y="68.9" class="st1" width="4.5" height="0.4"/>
	</g>
	<g>
		<rect x="12" y="68" class="st1" width="4.5" height="0.4"/>
	</g>
	<g>
		<rect x="12" y="67.1" class="st1" width="4.5" height="0.4"/>
	</g>
	<g>
		<rect x="12" y="66.2" class="st1" width="4.5" height="0.4"/>
	</g>
	<g>
		<rect x="12" y="65.3" class="st1" width="4.5" height="0.4"/>
	</g>
	<g>
		<rect x="11.9" y="64.4" class="st1" width="4.5" height="0.4"/>
	</g>
	<g>
		<rect x="12" y="63.5" class="st1" width="4.5" height="0.4"/>
	</g>
	<g>
		<rect x="12" y="62.6" class="st1" width="4.5" height="0.4"/>
	</g>
	<g>
		<rect x="12" y="61.7" class="st1" width="4.5" height="0.4"/>
	</g>
	<g>
		<rect x="12" y="60.8" class="st1" width="4.5" height="0.4"/>
	</g>
	<g>
		<rect x="12" y="59.9" class="st1" width="4.5" height="0.4"/>
	</g>
	<g>
		<rect x="12" y="59.1" class="st1" width="4.5" height="0.4"/>
	</g>
	<g>
		<rect x="12" y="58.2" class="st1" width="4.5" height="0.4"/>
	</g>
	<g>
		<rect x="12" y="57.3" class="st1" width="4.5" height="0.4"/>
	</g>
	<g>
		<rect x="12" y="56.4" class="st1" width="4.5" height="0.4"/>
	</g>
	<g>
		<rect x="12.1" y="55.5" class="st1" width="4.5" height="0.4"/>
	</g>
	<g>
		<rect x="12.1" y="54.6" class="st1" width="4.5" height="0.4"/>
	</g>
	<g>
		<rect x="12" y="53.7" class="st1" width="4.5" height="0.4"/>
	</g>
	<g>
		<rect x="12.1" y="52.8" class="st1" width="4.5" height="0.4"/>
	</g>
	<g>
		<rect x="12" y="51.9" class="st1" width="4.5" height="0.4"/>
	</g>
	<g>
		<rect x="12.1" y="51" class="st1" width="4.5" height="0.4"/>
	</g>
	<g>
		<rect x="12" y="50.1" class="st1" width="4.5" height="0.4"/>
	</g>
	<g>
		<rect x="12" y="49.2" class="st1" width="4.5" height="0.4"/>
	</g>
	<g>
		<rect x="12.1" y="48.3" class="st1" width="4.5" height="0.4"/>
	</g>
	<g>
		<rect x="12.1" y="47.4" class="st1" width="4.5" height="0.4"/>
	</g>
	<g>
		<rect x="12" y="46.5" class="st1" width="4.5" height="0.4"/>
	</g>
	<g>
		<rect x="12" y="45.6" class="st1" width="4.5" height="0.4"/>
	</g>
	<g>
		<rect x="12" y="44.7" class="st1" width="4.5" height="0.4"/>
	</g>
	<g>
		<rect x="12" y="43.8" class="st1" width="4.5" height="0.4"/>
	</g>
	<g>
		<rect x="12" y="42.9" class="st1" width="4.5" height="0.4"/>
	</g>
	<g>
		<rect x="12" y="42" class="st1" width="4.5" height="0.4"/>
	</g>
	<g>
		<rect x="12" y="41.1" class="st1" width="4.5" height="0.4"/>
	</g>
	<g>
		<rect x="12" y="40.3" class="st1" width="4.5" height="0.4"/>
	</g>
	<g>
		<rect x="12" y="39.4" class="st1" width="4.5" height="0.4"/>
	</g>
	<g>
		<rect x="12" y="38.5" class="st1" width="4.5" height="0.4"/>
	</g>
	<g>
		<rect x="12" y="37.6" class="st1" width="4.5" height="0.4"/>
	</g>
	<g>
		<rect x="12" y="36.7" class="st1" width="4.5" height="0.4"/>
	</g>
	<g>
		<rect x="12" y="35.8" class="st1" width="4.5" height="0.4"/>
	</g>
	<g>
		<rect x="12" y="34.9" class="st1" width="4.5" height="0.4"/>
	</g>
	<g>
		<rect x="12" y="34" class="st1" width="4.5" height="0.4"/>
	</g>
	<g>
		<rect x="12" y="33.1" class="st1" width="4.5" height="0.4"/>
	</g>
	<g>
		<rect x="12" y="32.2" class="st1" width="4.5" height="0.4"/>
	</g>
	<g>
		<rect x="12" y="31.3" class="st1" width="4.5" height="0.4"/>
	</g>
	<g>
		<rect x="12" y="30.4" class="st1" width="4.5" height="0.4"/>
	</g>
	<g>
		<rect x="12" y="29.5" class="st1" width="4.5" height="0.4"/>
	</g>
	<g>
		<rect x="12" y="28.6" class="st1" width="4.5" height="0.4"/>
	</g>
	<g>
		<rect x="12" y="27.7" class="st1" width="4.5" height="0.4"/>
	</g>
	<g>
		<rect x="12.1" y="26.8" class="st1" width="4.5" height="0.4"/>
	</g>
	<g>
		<rect x="12.1" y="25.9" class="st1" width="4.5" height="0.4"/>
	</g>
	<g>
		<rect x="12.1" y="25" class="st1" width="4.5" height="0.4"/>
	</g>
	<g>
		<rect x="12.1" y="24.1" class="st1" width="4.5" height="0.4"/>
	</g>
	<g>
		<rect x="12.1" y="23.2" class="st1" width="4.5" height="0.4"/>
	</g>
	<g>
		<rect x="12.1" y="22.3" class="st1" width="4.5" height="0.4"/>
	</g>
	<g>
		<rect x="12" y="21.4" class="st1" width="4.5" height="0.4"/>
	</g>
	<g>
		<rect x="12" y="20.6" class="st1" width="4.5" height="0.4"/>
	</g>
	<g>
		<rect x="12.1" y="19.7" class="st1" width="4.5" height="0.4"/>
	</g>
	<g>
		<rect x="12.1" y="18.8" class="st1" width="4.5" height="0.4"/>
	</g>
	<g>
		<rect x="12" y="9.8" class="st1" width="4.5" height="0.4"/>
	</g>
	<g>
		<rect x="12" y="8.9" class="st1" width="4.5" height="0.4"/>
	</g>
	<g>
		<rect x="12" y="8" class="st1" width="4.5" height="0.4"/>
	</g>
	<g>
		<rect x="11.9" y="7.1" class="st1" width="4.5" height="0.4"/>
	</g>
	<g>
		<rect x="11.9" y="6.2" class="st1" width="4.5" height="0.4"/>
	</g>
	<g>
		<rect x="12" y="5.3" class="st1" width="4.5" height="0.4"/>
	</g>
	<g>
		<rect x="12" y="4.4" class="st1" width="4.5" height="0.4"/>
	</g>
	<g>
		<rect x="15.9" y="3.6" class="st1" width="0.8" height="6.9"/>
	</g>
	<g>
		<rect x="16.1" y="18.4" class="st1" width="0.8" height="94.5"/>
	</g>
	<g>
		<rect x="16" y="120.8" class="st1" width="0.8" height="9.6"/>
	</g>
</g>
<g>
	<rect x="11.8" y="121.1" class="st1" width="4.5" height="0.4"/>
</g>
<g>
	<rect x="11.9" y="119.1" class="st1" width="4.5" height="0.4"/>
</g>
<g>
	<rect x="11.8" y="114.6" class="st1" width="4.5" height="0.4"/>
</g>
<g>
	<rect x="11.9" y="111.9" class="st1" width="4.5" height="0.4"/>
</g>
<g>
	<rect x="11.9" y="111" class="st1" width="4.5" height="0.4"/>
</g>
<g>
	<rect x="11.9" y="110.1" class="st1" width="4.5" height="0.4"/>
</g>
<g>
	<rect x="11.9" y="109.2" class="st1" width="4.5" height="0.4"/>
</g>
<g>
	<rect x="11.9" y="108.3" class="st1" width="4.5" height="0.4"/>
</g>
<g>
	<rect x="11.9" y="107.4" class="st1" width="4.5" height="0.4"/>
</g>
<g>
	<rect x="11.9" y="106.5" class="st1" width="4.5" height="0.4"/>
</g>
<g>
	<rect x="12" y="105.6" class="st1" width="4.5" height="0.4"/>
</g>
<g>
	<rect x="12" y="104.7" class="st1" width="4.5" height="0.4"/>
</g>
<g>
	<rect x="11.9" y="103.8" class="st1" width="4.5" height="0.4"/>
</g>
<g>
	<rect x="11.9" y="102.9" class="st1" width="4.5" height="0.4"/>
</g>
<g>
	<rect x="11.9" y="102" class="st1" width="4.5" height="0.4"/>
</g>
<g>
	<rect x="11.9" y="101.1" class="st1" width="4.5" height="0.4"/>
</g>
<g>
	<rect x="11.9" y="128.3" class="st1" width="4.5" height="0.4"/>
</g>
<g>
	<rect x="11.9" y="127.4" class="st1" width="4.5" height="0.4"/>
</g>
<g>
	<rect x="11.9" y="126.5" class="st1" width="4.5" height="0.4"/>
</g>
<g>
	<rect x="11.9" y="125.6" class="st1" width="4.5" height="0.4"/>
</g>
<g>
	<rect x="11.9" y="124.7" class="st1" width="4.5" height="0.4"/>
</g>
<g>
	<rect x="11.9" y="123.8" class="st1" width="4.5" height="0.4"/>
</g>
<g>
	<rect x="12" y="122.9" class="st1" width="4.5" height="0.4"/>
</g>
<g>
	<rect x="12" y="122" class="st1" width="4.5" height="0.4"/>
</g>
<g>
	<rect x="11.9" y="129.2" class="st1" width="4.5" height="0.4"/>
</g>
<g>
	<g>
		<path class="st1" d="M89,130.9c-1.2,0-2.4-0.4-2.4-0.4h-0.1v-9.7h0.4v9.4c0.3,0.1,1.2,0.4,2.2,0.4c0.9,0,1.8-0.3,2.1-0.4v-9.4h0.4
			v9.6l-0.1,0.1C91.3,130.5,90.2,130.9,89,130.9z"/>
	</g>
	<g>
		<rect x="91" y="18.3" class="st1" width="0.4" height="94.7"/>
	</g>
	<g>
		<path class="st1" d="M91.4,10.5H91V3.8c-0.3-0.1-1.1-0.4-2.1-0.4c-0.9,0-1.8,0.3-2.2,0.4v6.7h-0.4v-7h0.1c0,0,1.2-0.4,2.4-0.4
			c1.2,0,2.3,0.5,2.3,0.5l0.1,0.1v6.8H91.4z"/>
	</g>
	<g>
		<rect x="86.4" y="18.3" class="st1" width="0.4" height="94.7"/>
	</g>
	<g>
		<path class="st1" d="M88.9,132.4c-2.1,0-4-0.8-4.1-0.8l-0.1-0.1v-10.7h0.4v10.5c0.4,0.2,2.1,0.8,3.8,0.8c1.7,0,3.2-0.6,3.6-0.8
			v-10.4h0.4v10.7l-0.1,0.1C92.7,131.5,90.9,132.4,88.9,132.4z"/>
	</g>
	<g>
		<rect x="92.5" y="18.4" class="st1" width="0.4" height="94.5"/>
	</g>
	<g>
		<path class="st1" d="M92.9,10.4h-0.4V2.6c-0.4-0.2-1.9-0.9-3.6-0.9s-3.4,0.6-3.8,0.8v7.8h-0.4v-8l0.1-0.1c0.1,0,2-0.9,4.1-0.9
			s3.9,0.9,3.9,1l0.1,0.1C92.9,2.4,92.9,10.4,92.9,10.4z"/>
	</g>
	<g>
		<rect x="84.7" y="18.6" class="st1" width="0.4" height="94.2"/>
	</g>
	<g>
		<rect x="86.7" y="100.2" class="st1" width="4.5" height="0.4"/>
	</g>
	<g>
		<rect x="86.7" y="99.3" class="st1" width="4.5" height="0.4"/>
	</g>
	<g>
		<rect x="86.7" y="98.4" class="st1" width="4.5" height="0.4"/>
	</g>
	<g>
		<rect x="86.7" y="97.5" class="st1" width="4.5" height="0.4"/>
	</g>
	<g>
		<rect x="86.7" y="96.6" class="st1" width="4.5" height="0.4"/>
	</g>
	<g>
		<rect x="86.7" y="95.7" class="st1" width="4.5" height="0.4"/>
	</g>
	<g>
		<rect x="86.7" y="94.8" class="st1" width="4.5" height="0.4"/>
	</g>
	<g>
		<rect x="86.7" y="93.9" class="st1" width="4.5" height="0.4"/>
	</g>
	<g>
		<rect x="86.7" y="93" class="st1" width="4.5" height="0.4"/>
	</g>
	<g>
		<rect x="86.7" y="92.1" class="st1" width="4.5" height="0.4"/>
	</g>
	<g>
		<rect x="86.7" y="91.2" class="st1" width="4.5" height="0.4"/>
	</g>
	<g>
		<rect x="86.7" y="90.3" class="st1" width="4.5" height="0.4"/>
	</g>
	<g>
		<rect x="86.7" y="89.4" class="st1" width="4.5" height="0.4"/>
	</g>
	<g>
		<rect x="86.7" y="88.5" class="st1" width="4.5" height="0.4"/>
	</g>
	<g>
		<rect x="86.7" y="87.6" class="st1" width="4.5" height="0.4"/>
	</g>
	<g>
		<rect x="86.7" y="86.7" class="st1" width="4.5" height="0.4"/>
	</g>
	<g>
		<rect x="86.7" y="85.9" class="st1" width="4.5" height="0.4"/>
	</g>
	<g>
		<rect x="86.7" y="85" class="st1" width="4.5" height="0.4"/>
	</g>
	<g>
		<rect x="86.8" y="84.1" class="st1" width="4.5" height="0.4"/>
	</g>
	<g>
		<rect x="86.8" y="83.2" class="st1" width="4.5" height="0.4"/>
	</g>
	<g>
		<rect x="86.8" y="82.3" class="st1" width="4.5" height="0.4"/>
	</g>
	<g>
		<rect x="86.8" y="81.4" class="st1" width="4.5" height="0.4"/>
	</g>
	<g>
		<rect x="86.8" y="80.5" class="st1" width="4.5" height="0.4"/>
	</g>
	<g>
		<rect x="86.8" y="79.6" class="st1" width="4.5" height="0.4"/>
	</g>
	<g>
		<rect x="86.7" y="78.7" class="st1" width="4.5" height="0.4"/>
	</g>
	<g>
		<rect x="86.7" y="77.8" class="st1" width="4.5" height="0.4"/>
	</g>
	<g>
		<rect x="86.8" y="76.9" class="st1" width="4.5" height="0.4"/>
	</g>
	<g>
		<rect x="86.8" y="76" class="st1" width="4.5" height="0.4"/>
	</g>
	<g>
		<rect x="86.8" y="75.1" class="st1" width="4.5" height="0.4"/>
	</g>
	<g>
		<rect x="86.8" y="74.2" class="st1" width="4.5" height="0.4"/>
	</g>
	<g>
		<rect x="86.8" y="73.3" class="st1" width="4.5" height="0.4"/>
	</g>
	<g>
		<rect x="86.8" y="72.4" class="st1" width="4.5" height="0.4"/>
	</g>
	<g>
		<rect x="86.6" y="71.5" class="st1" width="4.5" height="0.4"/>
	</g>
	<g>
		<rect x="86.6" y="70.6" class="st1" width="4.5" height="0.4"/>
	</g>
	<g>
		<rect x="86.7" y="69.7" class="st1" width="4.5" height="0.4"/>
	</g>
	<g>
		<rect x="86.7" y="68.8" class="st1" width="4.5" height="0.4"/>
	</g>
	<g>
		<rect x="86.7" y="67.9" class="st1" width="4.5" height="0.4"/>
	</g>
	<g>
		<rect x="86.7" y="67.1" class="st1" width="4.5" height="0.4"/>
	</g>
	<g>
		<rect x="86.7" y="66.2" class="st1" width="4.5" height="0.4"/>
	</g>
	<g>
		<rect x="86.7" y="65.3" class="st1" width="4.5" height="0.4"/>
	</g>
	<g>
		<rect x="86.6" y="64.4" class="st1" width="4.5" height="0.4"/>
	</g>
	<g>
		<rect x="86.6" y="63.5" class="st1" width="4.5" height="0.4"/>
	</g>
	<g>
		<rect x="86.7" y="62.6" class="st1" width="4.5" height="0.4"/>
	</g>
	<g>
		<rect x="86.7" y="61.7" class="st1" width="4.5" height="0.4"/>
	</g>
	<g>
		<rect x="86.7" y="60.8" class="st1" width="4.5" height="0.4"/>
	</g>
	<g>
		<rect x="86.7" y="59.9" class="st1" width="4.5" height="0.4"/>
	</g>
	<g>
		<rect x="86.7" y="59" class="st1" width="4.5" height="0.4"/>
	</g>
	<g>
		<rect x="86.7" y="58.1" class="st1" width="4.5" height="0.4"/>
	</g>
	<g>
		<rect x="86.7" y="57.2" class="st1" width="4.5" height="0.4"/>
	</g>
	<g>
		<rect x="86.7" y="56.3" class="st1" width="4.5" height="0.4"/>
	</g>
	<g>
		<rect x="86.7" y="55.4" class="st1" width="4.5" height="0.4"/>
	</g>
	<g>
		<rect x="86.8" y="54.5" class="st1" width="4.5" height="0.4"/>
	</g>
	<g>
		<rect x="86.7" y="53.6" class="st1" width="4.5" height="0.4"/>
	</g>
	<g>
		<rect x="86.7" y="52.7" class="st1" width="4.5" height="0.4"/>
	</g>
	<g>
		<rect x="86.7" y="51.8" class="st1" width="4.5" height="0.4"/>
	</g>
	<g>
		<rect x="86.7" y="50.9" class="st1" width="4.5" height="0.4"/>
	</g>
	<g>
		<rect x="86.7" y="50" class="st1" width="4.5" height="0.4"/>
	</g>
	<g>
		<rect x="86.7" y="49.1" class="st1" width="4.5" height="0.4"/>
	</g>
	<g>
		<rect x="86.7" y="48.2" class="st1" width="4.5" height="0.4"/>
	</g>
	<g>
		<rect x="86.7" y="47.4" class="st1" width="4.5" height="0.4"/>
	</g>
	<g>
		<rect x="86.7" y="46.5" class="st1" width="4.5" height="0.4"/>
	</g>
	<g>
		<rect x="86.7" y="45.6" class="st1" width="4.5" height="0.4"/>
	</g>
	<g>
		<rect x="86.7" y="44.7" class="st1" width="4.5" height="0.4"/>
	</g>
	<g>
		<rect x="86.7" y="43.8" class="st1" width="4.5" height="0.4"/>
	</g>
	<g>
		<rect x="86.6" y="42.9" class="st1" width="4.5" height="0.4"/>
	</g>
	<g>
		<rect x="86.7" y="42" class="st1" width="4.5" height="0.4"/>
	</g>
	<g>
		<rect x="86.7" y="41.1" class="st1" width="4.5" height="0.4"/>
	</g>
	<g>
		<rect x="86.7" y="40.2" class="st1" width="4.5" height="0.4"/>
	</g>
	<g>
		<rect x="86.7" y="39.3" class="st1" width="4.5" height="0.4"/>
	</g>
	<g>
		<rect x="86.7" y="38.4" class="st1" width="4.5" height="0.4"/>
	</g>
	<g>
		<rect x="86.7" y="37.5" class="st1" width="4.5" height="0.4"/>
	</g>
	<g>
		<rect x="86.7" y="36.6" class="st1" width="4.5" height="0.4"/>
	</g>
	<g>
		<rect x="86.6" y="35.7" class="st1" width="4.5" height="0.4"/>
	</g>
	<g>
		<rect x="86.6" y="34.8" class="st1" width="4.5" height="0.4"/>
	</g>
	<g>
		<rect x="86.7" y="33.9" class="st1" width="4.5" height="0.4"/>
	</g>
	<g>
		<rect x="86.7" y="33" class="st1" width="4.5" height="0.4"/>
	</g>
	<g>
		<rect x="86.7" y="32.1" class="st1" width="4.5" height="0.4"/>
	</g>
	<g>
		<rect x="86.7" y="31.2" class="st1" width="4.5" height="0.4"/>
	</g>
	<g>
		<rect x="86.7" y="30.3" class="st1" width="4.5" height="0.4"/>
	</g>
	<g>
		<rect x="86.7" y="29.4" class="st1" width="4.5" height="0.4"/>
	</g>
	<g>
		<rect x="86.7" y="28.5" class="st1" width="4.5" height="0.4"/>
	</g>
	<g>
		<rect x="86.7" y="27.7" class="st1" width="4.5" height="0.4"/>
	</g>
	<g>
		<rect x="86.8" y="26.8" class="st1" width="4.5" height="0.4"/>
	</g>
	<g>
		<rect x="86.8" y="25.9" class="st1" width="4.5" height="0.4"/>
	</g>
	<g>
		<rect x="86.7" y="25" class="st1" width="4.5" height="0.4"/>
	</g>
	<g>
		<rect x="86.7" y="24.1" class="st1" width="4.5" height="0.4"/>
	</g>
	<g>
		<rect x="86.7" y="23.2" class="st1" width="4.5" height="0.4"/>
	</g>
	<g>
		<rect x="86.7" y="22.3" class="st1" width="4.5" height="0.4"/>
	</g>
	<g>
		<rect x="86.7" y="21.4" class="st1" width="4.5" height="0.4"/>
	</g>
	<g>
		<rect x="86.7" y="20.5" class="st1" width="4.5" height="0.4"/>
	</g>
	<g>
		<rect x="86.8" y="19.6" class="st1" width="4.5" height="0.4"/>
	</g>
	<g>
		<rect x="86.8" y="18.7" class="st1" width="4.5" height="0.4"/>
	</g>
	<g>
		<rect x="86.7" y="9.7" class="st1" width="4.5" height="0.4"/>
	</g>
	<g>
		<rect x="86.7" y="8.9" class="st1" width="4.5" height="0.4"/>
	</g>
	<g>
		<rect x="86.7" y="8" class="st1" width="4.5" height="0.4"/>
	</g>
	<g>
		<rect x="86.6" y="7.1" class="st1" width="4.5" height="0.4"/>
	</g>
	<g>
		<rect x="86.6" y="6.2" class="st1" width="4.5" height="0.4"/>
	</g>
	<g>
		<rect x="86.7" y="5.3" class="st1" width="4.5" height="0.4"/>
	</g>
	<g>
		<rect x="86.7" y="4.4" class="st1" width="4.5" height="0.4"/>
	</g>
	<g>
		<rect x="90.6" y="3.6" class="st1" width="0.8" height="6.7"/>
	</g>
	<g>
		<rect x="90.8" y="18.4" class="st1" width="0.8" height="94.5"/>
	</g>
	<g>
		<rect x="90.6" y="120.7" class="st1" width="0.8" height="9.7"/>
	</g>
</g>
<g>
	<rect x="86.5" y="121.1" class="st1" width="4.5" height="0.4"/>
</g>
<g>
	<rect x="86.6" y="119" class="st1" width="4.5" height="0.4"/>
</g>
<g>
	<rect x="86.5" y="114.5" class="st1" width="4.5" height="0.4"/>
</g>
<g>
	<rect x="86.6" y="111.8" class="st1" width="4.5" height="0.4"/>
</g>
<g>
	<rect x="86.6" y="110.9" class="st1" width="4.5" height="0.4"/>
</g>
<g>
	<rect x="86.6" y="110" class="st1" width="4.5" height="0.4"/>
</g>
<g>
	<rect x="86.6" y="109.1" class="st1" width="4.5" height="0.4"/>
</g>
<g>
	<rect x="86.6" y="108.2" class="st1" width="4.5" height="0.4"/>
</g>
<g>
	<rect x="86.6" y="107.4" class="st1" width="4.5" height="0.4"/>
</g>
<g>
	<rect x="86.6" y="106.5" class="st1" width="4.5" height="0.4"/>
</g>
<g>
	<rect x="86.6" y="105.6" class="st1" width="4.5" height="0.4"/>
</g>
<g>
	<rect x="86.6" y="104.7" class="st1" width="4.5" height="0.4"/>
</g>
<g>
	<rect x="86.6" y="103.8" class="st1" width="4.5" height="0.4"/>
</g>
<g>
	<rect x="86.6" y="102.9" class="st1" width="4.5" height="0.4"/>
</g>
<g>
	<rect x="86.6" y="102" class="st1" width="4.5" height="0.4"/>
</g>
<g>
	<rect x="86.6" y="101.1" class="st1" width="4.5" height="0.4"/>
</g>
<g>
	<rect x="86.6" y="128.3" class="st1" width="4.5" height="0.4"/>
</g>
<g>
	<rect x="86.6" y="127.4" class="st1" width="4.5" height="0.4"/>
</g>
<g>
	<rect x="86.6" y="126.5" class="st1" width="4.5" height="0.4"/>
</g>
<g>
	<rect x="86.6" y="125.6" class="st1" width="4.5" height="0.4"/>
</g>
<g>
	<rect x="86.6" y="124.7" class="st1" width="4.5" height="0.4"/>
</g>
<g>
	<rect x="86.6" y="123.8" class="st1" width="4.5" height="0.4"/>
</g>
<g>
	<rect x="86.6" y="122.9" class="st1" width="4.5" height="0.4"/>
</g>
<g>
	<rect x="86.6" y="122" class="st1" width="4.5" height="0.4"/>
</g>
<g>
	<rect x="86.5" y="129.1" class="st1" width="4.5" height="0.4"/>
</g>
</svg>
