<?xml version="1.0" encoding="utf-8"?>
<!-- Generator: Adobe Illustrator 24.0.3, SVG Export Plug-In . SVG Version: 6.00 Build 0)  -->
<svg version="1.1" id="Layer_1" xmlns="http://www.w3.org/2000/svg" xmlns:xlink="http://www.w3.org/1999/xlink" x="0px" y="0px"
	 viewBox="0 0 202.5 278" style="enable-background:new 0 0 202.5 278;" xml:space="preserve">
<style type="text/css">
	.st0{fill:#FFFDF5;}
	.st1{fill:#96D0D6;}
	.st2{fill:none;stroke:#F4B5C2;stroke-width:19;stroke-miterlimit:10;}
	.st3{fill:#EFB05E;}
	.st4{fill:#856F96;}
	.st5{fill:#9BCECA;}
</style>
<rect x="12.9" y="11.2" class="st0" width="177" height="257.7"/>
<g>
	<g>
		<path d="M183.5,146v112l-81.4,0l-1,0H19.2V140.1V21.5h76.4l2.8,0h85.1v118.6V146z M178.4,129.9V77.4c0-10.6-10.6-17.3-10.6-17.3
			v-8.3h-4.3v-4.6h4v-4h4.3v4h6.7c0,0,0-3.8,0-10.4c-7.8,0-10.2-7.4-10.2-10.8c-2.7,0-10.2,0-10.2,0v6.6h3.8v5.2h-4v3.4h-4.7v-3.4
			h-7.5c0,0-6.1-11.5-17.1-11.5c-3.1,0-30.1,0-30.1,0l-2.8,0c0,0-18.3,0-21.5,0c-11,0-17.1,11.5-17.1,11.5h-7.5v3.4h-4.7v-3.4h-4
			v-5.2h3.8v-6.6c0,0-7.5,0-10.2,0c0,3.5-2.4,10.8-10.2,10.8c0,6.6,0,10.4,0,10.4H31v-4h4.3v4h4v4.6H35v8.3c0,0-10.6,6.7-10.6,17.3
			v62.8l0,71.9h0.4c0-2.2,2.3-5.6,5.9-5.6c2.3,0,4,1.7,4,3.4c0,1.4-0.8,2.2-1.5,2.2c0,0-0.6-1.1-2.4-1.1c-1.1,0-2.5,1.7-2.5,3.2
			c0,4,2.9,6.9,6.7,6.9c2.4,0,4.9-1.5,4.9-3.1c0.7,0.7,1.6,1.8,1.6,3.2c0,1.4-0.3,1.8-0.3,1.8s0.6-0.1,2.4-0.1
			c5.5,0,11.3,4.7,11.3,11.2c0,1.5-0.1,2.2-0.1,2.2s1.1-0.3,2.5-0.3s2.2,0.7,2.2,0.7s-3.2,1.5-3.2,5.7c0,4.6,4.1,7.2,7.1,7.2
			c3,0,3.9-1.6,3.9-3.3s-1.4-2.4-1.4-2.4s0.7-1.5,2.8-1.5s2.9,1.2,2.9,3.7c0,4.5-4.9,6.8-4.9,6.8h34.8l0.6,0l34.2,0
			c0,0-4.9-2.3-4.9-6.8c0-2.5,0.8-3.7,2.9-3.7s2.8,1.5,2.8,1.5s-1.4,0.8-1.4,2.4c0,1.6,0.9,3.3,3.9,3.3c3,0,7.1-2.6,7.1-7.2
			c0-4.2-3.2-5.7-3.2-5.7s0.8-0.7,2.2-0.7s2.5,0.3,2.5,0.3s-0.1-0.7-0.1-2.2c0-6.6,5.8-11.2,11.3-11.2c1.8,0,2.4,0.1,2.4,0.1
			s-0.3-0.4-0.3-1.8c0-1.4,0.9-2.5,1.6-3.2c0,1.6,2.5,3.1,4.9,3.1c3.8,0,6.7-2.9,6.7-6.9c0-1.5-1.3-3.2-2.5-3.2
			c-1.8,0-2.4,1.1-2.4,1.1c-0.7,0-1.5-0.7-1.5-2.2c0-1.8,1.7-3.4,4-3.4c3.7,0,5.9,3.5,5.9,5.6h0.4l0-71.9V129.9z M49.3,26.3v6.6h5.4
			c0,0,3.6-5.1,6.7-6.6H49.3z M24.4,64c1.4-3.1,6.6-6.7,6.6-6.7v-5.4h-6.6V64z M26.2,24.5c-2.1,0-3.9,1.7-3.9,3.9s1.7,3.9,3.9,3.9
			s3.9-1.7,3.9-3.9S28.3,24.5,26.2,24.5z M141.3,26.3c3.1,1.4,6.7,6.6,6.7,6.6h5.4v-6.6H141.3z M178.3,51.8h-6.6v5.4
			c0,0,5.1,3.6,6.6,6.7V51.8z M172.7,28.4c0,2.1,1.7,3.9,3.9,3.9c2.1,0,3.9-1.7,3.9-3.9s-1.7-3.9-3.9-3.9
			C174.4,24.5,172.7,26.3,172.7,28.4z M157.7,252.9c0,0,0-3.5,0-5.5c-3.5-0.2-6.8-4.3-7.6-5.4c0,7.9-5.6,10.2-7.7,10.9H157.7z
			 M178.5,237.1c0,0-3.1,0-5.7,0c0,1.4-0.8,4.7-3.4,4.7c-2.6,0-3.1-3.6-3.1-3.6s3.3,1.1,3.3-3.9c0-4.3-4.1-8.5-9.5-8.5
			c-5.4,0-9.1,4-9.1,9s5,9.9,9.1,9.9c4.7,0,4.6-3.5,4.6-3.5s2,0.7,2,3c0,2.8-4.4,3.5-4.4,3.5v5.2h16.2V237.1z M178.5,215.9
			c-2.1,9.2-10.5,9-10.5,9s4.6,3.4,4.6,7.7l5.9,0C178.5,232.6,178.5,221.4,178.5,215.9z M60.3,252.9c-2.1-0.7-7.7-3-7.7-10.9
			c-0.8,1.1-4,5.2-7.6,5.4c0,2,0,5.5,0,5.5H60.3z M24.2,252.9h16.2v-5.2c0,0-4.4-0.7-4.4-3.5c0-2.3,2-3,2-3s-0.1,3.5,4.6,3.5
			c4.1,0,9.1-4.9,9.1-9.9s-3.8-9-9.1-9s-9.5,4.3-9.5,8.5c0,5,3.3,3.9,3.3,3.9s-0.5,3.6-3.1,3.6s-3.4-3.3-3.4-4.7c-2.6,0-5.7,0-5.7,0
			V252.9z M24.2,232.6l5.9,0c0-4.2,4.6-7.7,4.6-7.7s-8.4,0.2-10.5-9C24.2,221.4,24.2,232.6,24.2,232.6z"/>
	</g>
	<g>
		<path class="st1" d="M183.5,143.9v112l-81.4,0l-1,0H19.2V138V19.3h76.4l2.8,0h85.1V138V143.9z M178.4,127.7V75.3
			c0-10.6-10.6-17.3-10.6-17.3v-8.3h-4.3v-4.6h4v-4h4.3v4h6.7c0,0,0-3.8,0-10.4c-7.8,0-10.2-7.4-10.2-10.8c-2.7,0-10.2,0-10.2,0v6.6
			h3.8v5.2h-4v3.4h-4.7v-3.4h-7.5c0,0-6.1-11.5-17.1-11.5c-3.1,0-30.1,0-30.1,0l-2.8,0c0,0-18.3,0-21.5,0c-11,0-17.1,11.5-17.1,11.5
			h-7.5v3.4h-4.7v-3.4h-4v-5.2h3.8V24c0,0-7.5,0-10.2,0c0,3.5-2.4,10.8-10.2,10.8c0,6.6,0,10.4,0,10.4H31v-4h4.3v4h4v4.6H35V58
			c0,0-10.6,6.7-10.6,17.3v62.8l0,71.9h0.4c0-2.2,2.3-5.6,5.9-5.6c2.3,0,4,1.7,4,3.4c0,1.4-0.8,2.2-1.5,2.2c0,0-0.6-1.1-2.4-1.1
			c-1.1,0-2.5,1.7-2.5,3.2c0,4,2.9,6.9,6.7,6.9c2.4,0,4.9-1.5,4.9-3.1c0.7,0.7,1.6,1.8,1.6,3.2s-0.3,1.8-0.3,1.8s0.6-0.1,2.4-0.1
			c5.5,0,11.3,4.7,11.3,11.2c0,1.5-0.1,2.2-0.1,2.2s1.1-0.3,2.5-0.3s2.2,0.7,2.2,0.7s-3.2,1.5-3.2,5.7c0,4.6,4.1,7.2,7.1,7.2
			c3,0,3.9-1.6,3.9-3.3c0-1.6-1.4-2.4-1.4-2.4s0.7-1.5,2.8-1.5s2.9,1.2,2.9,3.7c0,4.5-4.9,6.8-4.9,6.8h34.8l0.6,0l34.2,0
			c0,0-4.9-2.3-4.9-6.8c0-2.5,0.8-3.7,2.9-3.7s2.8,1.5,2.8,1.5s-1.4,0.8-1.4,2.4s0.9,3.3,3.9,3.3c3,0,7.1-2.6,7.1-7.2
			c0-4.2-3.2-5.7-3.2-5.7s0.8-0.7,2.2-0.7s2.5,0.3,2.5,0.3s-0.1-0.7-0.1-2.2c0-6.6,5.8-11.2,11.3-11.2c1.8,0,2.4,0.1,2.4,0.1
			s-0.3-0.4-0.3-1.8c0-1.4,0.9-2.5,1.6-3.2c0,1.6,2.5,3.1,4.9,3.1c3.8,0,6.7-2.9,6.7-6.9c0-1.5-1.3-3.2-2.5-3.2
			c-1.8,0-2.4,1.1-2.4,1.1c-0.7,0-1.5-0.7-1.5-2.2c0-1.8,1.7-3.4,4-3.4c3.7,0,5.9,3.5,5.9,5.6h0.4l0-71.9V127.7z M49.3,24.2v6.6h5.4
			c0,0,3.6-5.1,6.7-6.6H49.3z M24.4,61.8c1.4-3.1,6.6-6.7,6.6-6.7v-5.4h-6.6V61.8z M26.2,22.4c-2.1,0-3.9,1.7-3.9,3.9
			s1.7,3.9,3.9,3.9s3.9-1.7,3.9-3.9S28.3,22.4,26.2,22.4z M141.3,24.2c3.1,1.4,6.7,6.6,6.7,6.6h5.4v-6.6H141.3z M178.3,49.7h-6.6
			v5.4c0,0,5.1,3.6,6.6,6.7V49.7z M172.7,26.2c0,2.1,1.7,3.9,3.9,3.9c2.1,0,3.9-1.7,3.9-3.9s-1.7-3.9-3.9-3.9
			C174.4,22.4,172.7,24.1,172.7,26.2z M157.7,250.8c0,0,0-3.5,0-5.5c-3.5-0.2-6.8-4.3-7.6-5.4c0,7.9-5.6,10.2-7.7,10.9H157.7z
			 M178.5,235c0,0-3.1,0-5.7,0c0,1.4-0.8,4.7-3.4,4.7c-2.6,0-3.1-3.6-3.1-3.6s3.3,1.1,3.3-3.9c0-4.3-4.1-8.5-9.5-8.5
			c-5.4,0-9.1,4-9.1,9c0,5,5,9.9,9.1,9.9c4.7,0,4.6-3.5,4.6-3.5s2,0.7,2,3c0,2.8-4.4,3.5-4.4,3.5v5.2h16.2V235z M178.5,213.8
			c-2.1,9.2-10.5,9-10.5,9s4.6,3.4,4.6,7.7l5.9,0C178.5,230.5,178.5,219.2,178.5,213.8z M60.3,250.8c-2.1-0.7-7.7-3-7.7-10.9
			c-0.8,1.1-4,5.2-7.6,5.4c0,2,0,5.5,0,5.5H60.3z M24.2,250.8h16.2v-5.2c0,0-4.4-0.7-4.4-3.5c0-2.3,2-3,2-3s-0.1,3.5,4.6,3.5
			c4.1,0,9.1-4.9,9.1-9.9s-3.8-9-9.1-9s-9.5,4.3-9.5,8.5c0,5,3.3,3.9,3.3,3.9s-0.5,3.6-3.1,3.6s-3.4-3.3-3.4-4.7c-2.6,0-5.7,0-5.7,0
			V250.8z M24.2,230.5l5.9,0c0-4.2,4.6-7.7,4.6-7.7s-8.4,0.2-10.5-9C24.2,219.2,24.2,230.5,24.2,230.5z"/>
	</g>
</g>
<rect x="9.6" y="9.7" class="st2" width="183.6" height="257.5"/>
<path class="st3" d="M80.3,123.8l4.4-3.8l25.1,25.9l-5.5,5.3c-2.9-2.9-4.6-4.2-6.1-2.7c-2.1,2.1-0.4,5.1-0.6,5.3
	c-0.2,0.2-0.4,0.2-1.1-0.4l-20.4-20.8c-0.6-0.6-0.6-0.8-0.4-1.1c0.4-0.4,3.2,1.9,5.5-0.4C82.6,129.5,83.2,127.8,80.3,123.8z
	 M123,134.5l-4.4,3.8l-25.1-25.9l5.5-5.3c2.9,2.9,4.6,4.2,6.1,2.7c2.1-2.1,0.4-5.1,0.6-5.3s0.4-0.2,1.1,0.4l20.4,20.8
	c0.6,0.6,0.6,0.8,0.4,1.1c-0.4,0.4-3.2-1.9-5.5,0.4C120.7,128.8,120.1,130.5,123,134.5z M123,134.5l-4.4,3.8l-25.1-25.9l5.5-5.3
	c2.9,2.9,4.6,4.2,6.1,2.7c2.1-2.1,0.4-5.1,0.6-5.3s0.4-0.2,1.1,0.4l20.4,20.8c0.6,0.6,0.6,0.8,0.4,1.1c-0.4,0.4-3.2-1.9-5.5,0.4
	C120.7,128.8,120.1,130.5,123,134.5z M91.9,57.9v-4.4c6.5-1.1,8.2-3.4,9.1-5.1c0.8-1.7,1.1-2.1,1.3-2.1s0.4,0.4,1.1,2.1
	c0.6,1.7,2.1,4,9.9,5.3l-1.9,4.2H91.9z M101.6,204.4c-37.9,0-31.2-16.4-41.7-16.4l-5.7-13.9c4.8-4,6.3-21.7,6.3-30.3
	c0.4-0.2,6.9-2.7,10.5-4l8.8,5.3c0,13.1,8.4,34.7,21.3,34.7c6.1,0,9.5-4.6,9.5-10.3c0-13.3-6.5-18.5-20.6-34.5
	c-6.7-7.8-17.5-16-23.4-25.9c-6.3-10.9-5.7-20.8-11.2-24.8L59,70.9c1.9-0.6,5.7-0.4,7.6-2.7c1.9-2.3,9.9-15.6,35.2-15.6
	s32.8,13.1,34.3,15.4c1.5,2.3,5.7,4.2,7.8,3.4c1.5,1.5,2.5,5.7,3.6,13.1c-1.3,0.2-3.2,2.1-3.8,4.4c-0.6,2.3-2.9,15.2-2.9,25.9
	l-9.5,3.6l-10.5-3.6c0-12.2-2.9-36.6-16-36.6c-9.3,0-12.6,7.6-12.6,12.8c0,10.3,7.6,16.8,17.5,27c17.3,17.9,24.8,31.2,27,37.1
	c2.1,6.1,6.7,17.7,10.7,19.2l-4,13.9C132.7,188,139.5,204.4,101.6,204.4z M102.2,211.2c-0.2,0-0.4-0.4-1.3-2.1
	c-0.8-1.7-4-4.6-9.1-5.1l0.8-4.4h18.5l1.9,4.2c-7.2,0.6-9.3,3.6-9.9,5.3S102.4,211.2,102.2,211.2z"/>
<path class="st4" d="M147.1,86.1c0,2.5,0,17.7,0,20.4c-1.9,1.3-4.2,2.9-4.6,8.2l-3.6,26.3l-7.2,2.5c-2.9-4-6.7-9.5-8-11.2
	c-1.1-1.5-1.3-2.9-0.4-3.6c1.9-1.5,4,1.1,5.7-0.2c1.1-0.8,0.8-1.9-1.1-3.8l-8.4-8.6l11.4,4.2l10.9-4.2c0.2-9.3,1.3-20.8,2.7-26.1
	C145.3,87.8,146.7,86.5,147.1,86.1z M93.7,90.9c0-3.8,2.5-10.9,10.5-10.9c8.8,0,14.5,14.3,14.5,31.8c0,2.9-8.2-14.5-18.5-14.5
	c-4.2,0-4.2,1.9-4.8,2.1C94.7,99.6,93.7,96,93.7,90.9z M54.9,87.3v18.5c2.1,1.9,5.3,5.9,8.2,12.2c3.4,7.2,8,18.9,9.1,21.1l8.4,4.8
	c0.4,4.8,1.7,9.7,2.5,13.1s2.3,9.3,6.3,13.7c1.5,1.7,3.2,2.3,3.6,2.3s3.8-4,7.2-4c2.3,0,6.3,5.5,6.7,5.5s1.5-1.1,1.5-7.8
	c0-2.9-2.1-9.3-4.6-12.4c-2.5-3.2-3.6-3.6-4.4-3.6s-0.4,2.7-0.4,3.4c0,0.6-0.4,2.9-1.7,2.9L72.8,132c0-1.7,1.5-1.7,3.6-1.3
	c1.3,0.2,4.2-0.2,4.2-1.7c0-1.3-2.7-3.2-5.5-5.9c-3.2-3.2-7.8-6.5-13.3-18.7C58.9,97.7,57.9,88.6,54.9,87.3z M102.1,233.2
	c0.4,0,0.6-0.4,1.7-2.1c1.1-1.7,4-4,10.3-4c7.8,0,12.2-2.9,17.9-8c5.7-5.1,9.1-7.2,12.6-6.9c2.7-5.7,3.2-7.4,3.6-9.5
	c0.2-6.7,0-9.9,0-13.9v-5.1l-1.5-1.5c-0.2,0-0.4,1.1-0.8,2.5c-0.6,1.9-1.1,4.8-2.1,4.8c-4.8,0-6.5,5.9-12.8,10.7
	c-4.8,3.6-13.7,5.5-18.5,5.7c-3.6,0.2-5.9,0.8-7.6,3.8c-1.1,1.9-1.9,4-2.7,4V233.2z M102.1,233.2v-19.4c-0.8,0-2.5-2.1-3.6-4
	c-1.7-2.9-4-3.6-7.6-3.8c-4.8-0.2-14.5-2.1-19.4-5.9c-6.1-4.8-8-10.5-13.5-10.5l-2.7-7.4l-0.8,1.5v5.1c0,4-0.2,7.2,0,13.9
	c0.4,2.1,2.3,3.8,5.1,9.5c3.6-0.2,6.9,1.9,12.6,6.9c5.7,5.1,10.1,8,17.9,8c6.3,0,9.3,2.3,10.3,4
	C101.5,232.8,101.7,233.2,102.1,233.2z"/>
<circle class="st5" cx="103.4" cy="129.3" r="6.4"/>
</svg>
