<?xml version="1.0" encoding="utf-8"?>
<!-- Generator: Adobe Illustrator 24.0.3, SVG Export Plug-In . SVG Version: 6.00 Build 0)  -->
<svg version="1.1" id="Layer_1" xmlns="http://www.w3.org/2000/svg" xmlns:xlink="http://www.w3.org/1999/xlink" x="0px" y="0px"
	 viewBox="0 0 707.8 33.5" style="enable-background:new 0 0 707.8 33.5;" xml:space="preserve">
<style type="text/css">
	.st0{fill:#FF0000;}
	.st1{fill:#FFF2E9;}
	.st2{fill:#FFB510;}
	.st3{fill:#FC9D35;}
</style>
<rect x="0.3" y="0.7" class="st3" width="706.7" height="31.5"/>
<rect x="35.6" y="-1.9" transform="matrix(4.488149e-11 -1 1 4.488149e-11 30.6155 63.6451)" class="st1" width="23" height="36.9"/>
<rect x="108.2" y="-1.9" transform="matrix(4.496054e-11 -1 1 4.496054e-11 103.2187 136.2483)" class="st1" width="23" height="36.9"/>
<rect x="179.8" y="-1.9" transform="matrix(4.480245e-11 -1 1 4.480245e-11 174.8139 207.8435)" class="st1" width="23" height="36.9"/>
<rect x="251.4" y="-1.9" transform="matrix(4.480245e-11 -1 1 4.480245e-11 246.4091 279.4387)" class="st1" width="23" height="36.9"/>
<rect x="323" y="-1.9" transform="matrix(4.496054e-11 -1 1 4.496054e-11 318.0044 351.0339)" class="st1" width="23" height="36.9"/>
<path class="st1" d="M83.6,19.7c0.9,0,1.4,0.4,2.1,1.1v7.6h10.8v-9.3h-9.1c0,0-1.3-0.5-1.3-2.4l0,0c0-1.9,1.3-2.4,1.3-2.4h9.1V5.1
	H85.7v7.6c-0.7,0.7-1.2,1.1-2.1,1.1l-0.1,0c-0.9,0-1.4-0.4-2.1-1.1V5.1H70.7v9.3h9.1c0,0,1.3,0.5,1.3,2.4l0,0c0,1.9-1.3,2.4-1.3,2.4
	h-9.1v9.3h10.8v-7.6c0.7-0.7,1.2-1.1,2.1-1.1L83.6,19.7z"/>
<path class="st1" d="M156,19.4c0.9,0,1.4,0.4,2.1,1.1v7.6h10.8v-9.3h-9.1c0,0-1.3-0.5-1.3-2.4l0,0c0-1.9,1.3-2.4,1.3-2.4h9.1V4.8
	h-10.8v7.6c-0.7,0.7-1.2,1.1-2.1,1.1l-0.1,0c-0.9,0-1.4-0.4-2.1-1.1V4.8h-10.8v9.3h9.1c0,0,1.3,0.5,1.3,2.4l0,0
	c0,1.9-1.3,2.4-1.3,2.4h-9.1v9.3h10.8v-7.6c0.7-0.7,1.2-1.1,2.1-1.1L156,19.4z"/>
<path class="st1" d="M226.2,19c0.9,0,1.4,0.4,2.1,1.1v7.6H239v-9.3h-9.1c0,0-1.3-0.5-1.3-2.4l0,0c0-1.9,1.3-2.4,1.3-2.4h9.1V4.4
	h-10.8V12c-0.7,0.7-1.2,1.1-2.1,1.1l-0.1,0c-0.9,0-1.4-0.4-2.1-1.1V4.4h-10.8v9.3h9.1c0,0,1.3,0.5,1.3,2.4l0,0
	c0,1.9-1.3,2.4-1.3,2.4h-9.1v9.3H224v-7.6c0.7-0.7,1.2-1.1,2.1-1.1L226.2,19z"/>
<path class="st1" d="M298.1,18.7c0.9,0,1.4,0.4,2.1,1.1v7.6H311v-9.3h-9.1c0,0-1.3-0.5-1.3-2.4l0,0c0-1.9,1.3-2.4,1.3-2.4h9.1V4.1
	h-10.8v7.6c-0.7,0.7-1.2,1.1-2.1,1.1l-0.1,0c-0.9,0-1.4-0.4-2.1-1.1V4.1h-10.8v9.3h9.1c0,0,1.3,0.5,1.3,2.4l0,0
	c0,1.9-1.3,2.4-1.3,2.4h-9.1v9.3H296v-7.6c0.7-0.7,1.2-1.1,2.1-1.1L298.1,18.7z"/>
<path class="st1" d="M677.4,18.8c0.9,0,1.4,0.4,2.1,1.1v7.6h10.8v-9.3h-9.1c0,0-1.3-0.5-1.3-2.4l0,0c0-1.9,1.3-2.4,1.3-2.4h9.1V4.1
	h-10.8v7.6c-0.7,0.7-1.2,1.1-2.1,1.1l-0.1,0c-0.9,0-1.4-0.4-2.1-1.1V4.1h-10.8v9.3h9.1c0,0,1.3,0.5,1.3,2.4l0,0
	c0,1.9-1.3,2.4-1.3,2.4h-9.1v9.3h10.8v-7.6c0.7-0.7,1.2-1.1,2.1-1.1L677.4,18.8z"/>
<path class="st2" d="M52.3,16.8c0,1.8,2.5,1.9,3.4,1.9c0.9,0,8.4,0,8.4,0v7.2H50.6c0,0,0-2.3,0-3.6s-2.1-2.2-3-2.2l-0.2,0
	c-0.9,0-3,1-3,2.2s0,3.6,0,3.6H30.8v-7.2c0,0,7.6,0,8.4,0s3.4,0,3.4-1.8l0-0.1c0-1.8-2.5-1.9-3.4-1.9c-0.9,0-8.4,0-8.4,0V7.6h13.6
	c0,0,0,2.3,0,3.6s2.1,2.2,3,2.2l0.2,0c0.9,0,3-1,3-2.2s0-3.6,0-3.6h13.6v7.2c0,0-7.6,0-8.4,0C54.8,14.8,52.3,15,52.3,16.8L52.3,16.8
	z"/>
<path class="st2" d="M124.5,17.1c0,1.8,2.5,1.9,3.4,1.9s8.4,0,8.4,0v7.2h-13.6c0,0,0-2.3,0-3.6s-2.1-2.2-3-2.2l-0.2,0
	c-0.9,0-3,1-3,2.2c0,1.2,0,3.6,0,3.6h-13.6v-7.2c0,0,7.6,0,8.4,0c0.9,0,3.4,0,3.4-1.8l0-0.1c0-1.8-2.5-1.9-3.4-1.9s-8.4,0-8.4,0V7.9
	h13.6c0,0,0,2.3,0,3.6s2.1,2.2,3,2.2l0.2,0c0.9,0,3-1,3-2.2s0-3.6,0-3.6h13.6v7.2c0,0-7.6,0-8.4,0S124.5,15.3,124.5,17.1L124.5,17.1
	z"/>
<path class="st2" d="M196,16.3c0,1.8,2.5,1.9,3.4,1.9s8.4,0,8.4,0v7.2h-13.6c0,0,0-2.3,0-3.6c0-1.2-2.1-2.2-3-2.2l-0.2,0
	c-0.9,0-3,1-3,2.2s0,3.6,0,3.6h-13.6v-7.2c0,0,7.6,0,8.4,0s3.4,0,3.4-1.8l0-0.1c0-1.8-2.5-1.9-3.4-1.9c-0.9,0-8.4,0-8.4,0V7.1H188
	c0,0,0,2.3,0,3.6s2.1,2.2,3,2.2l0.2,0c0.9,0,3-1,3-2.2s0-3.6,0-3.6h13.6v7.2c0,0-7.6,0-8.4,0S196,14.5,196,16.3L196,16.3z"/>
<path class="st2" d="M267.2,16.4c0,1.8,2.5,1.9,3.4,1.9c0.9,0,8.4,0,8.4,0v7.2h-13.6c0,0,0-2.3,0-3.6s-2.1-2.2-3-2.2l-0.2,0
	c-0.9,0-3,1-3,2.2s0,3.6,0,3.6h-13.6v-7.2c0,0,7.6,0,8.4,0c0.9,0,3.4,0,3.4-1.8l0-0.1c0-1.8-2.5-1.9-3.4-1.9c-0.9,0-8.4,0-8.4,0V7.3
	h13.6c0,0,0,2.3,0,3.6s2.1,2.2,3,2.2l0.2,0c0.9,0,3-1,3-2.2s0-3.6,0-3.6H279v7.2c0,0-7.6,0-8.4,0C269.7,14.5,267.2,14.6,267.2,16.4
	L267.2,16.4z"/>
<path class="st2" d="M339,16.7c0,1.8,2.5,1.9,3.4,1.9c0.9,0,8.4,0,8.4,0v7.2h-13.6c0,0,0-2.3,0-3.6c0-1.2-2.1-2.2-3-2.2l-0.2,0
	c-0.9,0-3,1-3,2.2s0,3.6,0,3.6h-13.6v-7.2c0,0,7.6,0,8.4,0s3.4,0,3.4-1.8l0-0.1c0-1.8-2.5-1.9-3.4-1.9c-0.9,0-8.4,0-8.4,0V7.6H331
	c0,0,0,2.3,0,3.6s2.1,2.2,3,2.2l0.2,0c0.9,0,3-1,3-2.2s0-3.6,0-3.6h13.6v7.2c0,0-7.6,0-8.4,0C341.5,14.8,339,14.9,339,16.7L339,16.7
	z"/>
<rect x="643.8" y="4.9" class="st1" width="14.7" height="23.1"/>
<path class="st2" d="M653.1,16.4c0-2.1,3.2-2.8,3.2-2.8V7h-10.4v6.5c0,0,3.2,0.6,3.2,2.8l0,0.1c0,2.2-3.2,2.8-3.2,2.8v6.5h10.4v-6.5
	c0,0-3.2-0.7-3.2-2.8L653.1,16.4z"/>
<rect x="394.4" y="-2.2" transform="matrix(4.480245e-11 -1 1 4.480245e-11 389.7485 422.1161)" class="st1" width="23" height="36.9"/>
<rect x="466" y="-2.2" transform="matrix(4.480245e-11 -1 1 4.480245e-11 461.3437 493.7113)" class="st1" width="23" height="36.9"/>
<rect x="537.6" y="-2.2" transform="matrix(4.496054e-11 -1 1 4.496054e-11 532.9389 565.3065)" class="st1" width="23" height="36.9"/>
<path class="st1" d="M370.6,19.1c0.9,0,1.4,0.4,2.1,1.1v7.6h10.8v-9.3h-9.1c0,0-1.3-0.5-1.3-2.4l0,0c0-1.9,1.3-2.4,1.3-2.4h9.1V4.5
	h-10.8V12c-0.7,0.7-1.2,1.1-2.1,1.1l-0.1,0c-0.9,0-1.4-0.4-2.1-1.1V4.5h-10.8v9.3h9.1c0,0,1.3,0.5,1.3,2.4l0,0
	c0,1.9-1.3,2.4-1.3,2.4h-9.1v9.3h10.8v-7.6c0.7-0.7,1.2-1.1,2.1-1.1L370.6,19.1z"/>
<path class="st1" d="M440.8,18.7c0.9,0,1.4,0.4,2.1,1.1v7.6h10.8v-9.3h-9.1c0,0-1.3-0.5-1.3-2.4l0,0c0-1.9,1.3-2.4,1.3-2.4h9.1V4.1
	h-10.8v7.6c-0.7,0.7-1.2,1.1-2.1,1.1l-0.1,0c-0.9,0-1.4-0.4-2.1-1.1V4.1h-10.8v9.3h9.1c0,0,1.3,0.5,1.3,2.4l0,0
	c0,1.9-1.3,2.4-1.3,2.4h-9.1v9.3h10.8v-7.6c0.7-0.7,1.2-1.1,2.1-1.1L440.8,18.7z"/>
<path class="st1" d="M512.8,18.4c0.9,0,1.4,0.4,2.1,1.1v7.6h10.8v-9.3h-9.1c0,0-1.3-0.5-1.3-2.4l0,0c0-1.9,1.3-2.4,1.3-2.4h9.1V3.8
	h-10.8v7.6c-0.7,0.7-1.2,1.1-2.1,1.1l-0.1,0c-0.9,0-1.4-0.4-2.1-1.1V3.8h-10.8v9.3h9.1c0,0,1.3,0.5,1.3,2.4l0,0
	c0,1.9-1.3,2.4-1.3,2.4h-9.1v9.3h10.8v-7.6c0.7-0.7,1.2-1.1,2.1-1.1L512.8,18.4z"/>
<path class="st2" d="M410.6,15.9c0,1.8,2.5,1.9,3.4,1.9s8.4,0,8.4,0V25h-13.6c0,0,0-2.3,0-3.6s-2.1-2.2-3-2.2l-0.2,0
	c-0.9,0-3,1-3,2.2s0,3.6,0,3.6H389v-7.2c0,0,7.6,0,8.4,0s3.4,0,3.4-1.8l0-0.1c0-1.8-2.5-1.9-3.4-1.9c-0.9,0-8.4,0-8.4,0V6.8h13.6
	c0,0,0,2.3,0,3.6s2.1,2.2,3,2.2l0.2,0c0.9,0,3-1,3-2.2s0-3.6,0-3.6h13.6V14c0,0-7.6,0-8.4,0S410.6,14.1,410.6,15.9L410.6,15.9z"/>
<path class="st2" d="M481.8,16.1c0,1.8,2.5,1.9,3.4,1.9c0.9,0,8.4,0,8.4,0v7.2h-13.6c0,0,0-2.3,0-3.6c0-1.2-2.1-2.2-3-2.2l-0.2,0
	c-0.9,0-3,1-3,2.2s0,3.6,0,3.6h-13.6v-7.2c0,0,7.6,0,8.4,0c0.9,0,3.4,0,3.4-1.8l0-0.1c0-1.8-2.5-1.9-3.4-1.9s-8.4,0-8.4,0V6.9h13.6
	c0,0,0,2.3,0,3.6s2.1,2.2,3,2.2l0.2,0c0.9,0,3-1,3-2.2s0-3.6,0-3.6h13.6v7.2c0,0-7.6,0-8.4,0C484.3,14.1,481.8,14.2,481.8,16.1
	L481.8,16.1z"/>
<path class="st2" d="M553.6,16.4c0,1.8,2.5,1.9,3.4,1.9s8.4,0,8.4,0v7.2h-13.6c0,0,0-2.3,0-3.6s-2.1-2.2-3-2.2l-0.2,0
	c-0.9,0-3,1-3,2.2s0,3.6,0,3.6H532v-7.2c0,0,7.6,0,8.4,0s3.4,0,3.4-1.8l0-0.1c0-1.8-2.5-1.9-3.4-1.9s-8.4,0-8.4,0V7.2h13.6
	c0,0,0,2.3,0,3.6s2.1,2.2,3,2.2l0.2,0c0.9,0,3-1,3-2.2s0-3.6,0-3.6h13.6v7.2c0,0-7.6,0-8.4,0S553.6,14.6,553.6,16.4L553.6,16.4z"/>
<path class="st1" d="M586,18.6c0.9,0,1.4,0.4,2.1,1.1v7.6h10.8v-9.3h-9.1c0,0-1.3-0.5-1.3-2.4l0,0c0-1.9,1.3-2.4,1.3-2.4h9.1V3.9
	H588v7.6c-0.7,0.7-1.2,1.1-2.1,1.1l-0.1,0c-0.9,0-1.4-0.4-2.1-1.1V3.9H573v9.3h9.1c0,0,1.3,0.5,1.3,2.4l0,0c0,1.9-1.3,2.4-1.3,2.4
	H573v9.3h10.8v-7.6c0.7-0.7,1.2-1.1,2.1-1.1L586,18.6z"/>
<rect x="610.1" y="-2.3" transform="matrix(4.496054e-11 -1 1 4.496054e-11 605.4747 637.8049)" class="st1" width="23" height="36.9"/>
<path class="st2" d="M626.1,16.4c0,1.8,2.5,1.9,3.4,1.9c0.9,0,8.4,0,8.4,0v7.2h-13.6c0,0,0-2.3,0-3.6s-2.1-2.2-3-2.2l-0.2,0
	c-0.9,0-3,1-3,2.2s0,3.6,0,3.6h-13.6v-7.2c0,0,7.6,0,8.4,0s3.4,0,3.4-1.8l0-0.1c0-1.8-2.5-1.9-3.4-1.9s-8.4,0-8.4,0V7.2h13.6
	c0,0,0,2.3,0,3.6s2.1,2.2,3,2.2l0.2,0c0.9,0,3-1,3-2.2s0-3.6,0-3.6h13.6v7.2c0,0-7.6,0-8.4,0C628.6,14.4,626.1,14.5,626.1,16.4
	L626.1,16.4z"/>
</svg>
