<?xml version="1.0" encoding="utf-8"?>
<!-- Generator: Adobe Illustrator 24.0.3, SVG Export Plug-In . SVG Version: 6.00 Build 0)  -->
<svg version="1.1" id="Layer_1" xmlns="http://www.w3.org/2000/svg" xmlns:xlink="http://www.w3.org/1999/xlink" x="0px" y="0px"
	 viewBox="0 0 707.8 33.5" style="enable-background:new 0 0 707.8 33.5;" xml:space="preserve">
<style type="text/css">
	.st0{fill:#FFBDB6;}
	.st1{fill:#FFF2E9;}
	.st2{fill:#FF5A81;}
	.st3{fill:#F98246;}
</style>
<rect x="-58.1" y="1.3" class="st0" width="965.9" height="31.5"/>
<rect x="36.1" y="-1.3" transform="matrix(4.488149e-11 -1 1 4.488149e-11 30.4754 64.7206)" class="st1" width="23" height="36.9"/>
<rect x="108.7" y="-1.3" transform="matrix(4.496054e-11 -1 1 4.496054e-11 103.0786 137.3238)" class="st1" width="23" height="36.9"/>
<rect x="180.3" y="-1.3" transform="matrix(4.480245e-11 -1 1 4.480245e-11 174.6738 208.919)" class="st1" width="23" height="36.9"/>
<rect x="251.9" y="-1.3" transform="matrix(4.480245e-11 -1 1 4.480245e-11 246.269 280.5143)" class="st1" width="23" height="36.9"/>
<rect x="323.5" y="-1.3" transform="matrix(4.496054e-11 -1 1 4.496054e-11 317.8642 352.1095)" class="st1" width="23" height="36.9"/>
<path class="st1" d="M84.1,20.3c0.9,0,1.4,0.4,2.1,1.1V29h10.8v-9.3h-9.1c0,0-1.3-0.5-1.3-2.4l0,0c0-1.9,1.3-2.4,1.3-2.4h9.1V5.7
	H86.2v7.6c-0.7,0.7-1.2,1.1-2.1,1.1l-0.1,0c-0.9,0-1.4-0.4-2.1-1.1V5.7H71.2V15h9.1c0,0,1.3,0.5,1.3,2.4l0,0c0,1.9-1.3,2.4-1.3,2.4
	h-9.1V29h10.8v-7.6c0.7-0.7,1.2-1.1,2.1-1.1L84.1,20.3z"/>
<path class="st1" d="M156.5,20c0.9,0,1.4,0.4,2.1,1.1v7.6h10.8v-9.3h-9.1c0,0-1.3-0.5-1.3-2.4l0,0c0-1.9,1.3-2.4,1.3-2.4h9.1V5.4
	h-10.8V13c-0.7,0.7-1.2,1.1-2.1,1.1l-0.1,0c-0.9,0-1.4-0.4-2.1-1.1V5.4h-10.8v9.3h9.1c0,0,1.3,0.5,1.3,2.4l0,0
	c0,1.9-1.3,2.4-1.3,2.4h-9.1v9.3h10.8v-7.6c0.7-0.7,1.2-1.1,2.1-1.1L156.5,20z"/>
<path class="st1" d="M226.6,19.6c0.9,0,1.4,0.4,2.1,1.1v7.6h10.8V19h-9.1c0,0-1.3-0.5-1.3-2.4l0,0c0-1.9,1.3-2.4,1.3-2.4h9.1V5
	h-10.8v7.6c-0.7,0.7-1.2,1.1-2.1,1.1l-0.1,0c-0.9,0-1.4-0.4-2.1-1.1V5h-10.8v9.3h9.1c0,0,1.3,0.5,1.3,2.4l0,0c0,1.9-1.3,2.4-1.3,2.4
	h-9.1v9.3h10.8v-7.6c0.7-0.7,1.2-1.1,2.1-1.1L226.6,19.6z"/>
<path class="st1" d="M298.6,19.3c0.9,0,1.4,0.4,2.1,1.1V28h10.8v-9.3h-9.1c0,0-1.3-0.5-1.3-2.4l0,0c0-1.9,1.3-2.4,1.3-2.4h9.1V4.7
	h-10.8v7.6c-0.7,0.7-1.2,1.1-2.1,1.1l-0.1,0c-0.9,0-1.4-0.4-2.1-1.1V4.7h-10.8V14h9.1c0,0,1.3,0.5,1.3,2.4l0,0
	c0,1.9-1.3,2.4-1.3,2.4h-9.1V28h10.8v-7.6c0.7-0.7,1.2-1.1,2.1-1.1L298.6,19.3z"/>
<path class="st1" d="M651.9,19.4c0.9,0,1.4,0.4,2.1,1.1v7.6h10.8v-9.3h-9.1c0,0-1.3-0.5-1.3-2.4l0,0c0-1.9,1.3-2.4,1.3-2.4h9.1V4.8
	H654v7.6c-0.7,0.7-1.2,1.1-2.1,1.1l-0.1,0c-0.9,0-1.4-0.4-2.1-1.1V4.8H639V14h9.1c0,0,1.3,0.5,1.3,2.4l0,0c0,1.9-1.3,2.4-1.3,2.4
	H639v9.3h10.8v-7.6c0.7-0.7,1.2-1.1,2.1-1.1L651.9,19.4z"/>
<path class="st2" d="M52.8,17.4c0,1.8,2.5,1.9,3.4,1.9c0.9,0,8.4,0,8.4,0v7.2H51c0,0,0-2.3,0-3.6s-2.1-2.2-3-2.2l-0.2,0
	c-0.9,0-3,1-3,2.2s0,3.6,0,3.6H31.3v-7.2c0,0,7.6,0,8.4,0s3.4,0,3.4-1.8l0-0.1c0-1.8-2.5-1.9-3.4-1.9c-0.9,0-8.4,0-8.4,0V8.3h13.6
	c0,0,0,2.3,0,3.6s2.1,2.2,3,2.2l0.2,0c0.9,0,3-1,3-2.2s0-3.6,0-3.6h13.6v7.2c0,0-7.6,0-8.4,0C55.3,15.4,52.8,15.6,52.8,17.4
	L52.8,17.4z"/>
<path class="st3" d="M125,17.7c0,1.8,2.5,1.9,3.4,1.9c0.9,0,8.4,0,8.4,0v7.2h-13.6c0,0,0-2.3,0-3.6s-2.1-2.2-3-2.2l-0.2,0
	c-0.9,0-3,1-3,2.2s0,3.6,0,3.6h-13.6v-7.2c0,0,7.6,0,8.4,0c0.9,0,3.4,0,3.4-1.8l0-0.1c0-1.8-2.5-1.9-3.4-1.9s-8.4,0-8.4,0V8.6H117
	c0,0,0,2.3,0,3.6s2.1,2.2,3,2.2l0.2,0c0.9,0,3-1,3-2.2s0-3.6,0-3.6h13.6v7.2c0,0-7.6,0-8.4,0C127.5,15.7,125,15.9,125,17.7L125,17.7
	z"/>
<path class="st2" d="M196.4,16.9c0,1.8,2.5,1.9,3.4,1.9c0.9,0,8.4,0,8.4,0v7.2h-13.6c0,0,0-2.3,0-3.6s-2.1-2.2-3-2.2l-0.2,0
	c-0.9,0-3,1-3,2.2s0,3.6,0,3.6h-13.6v-7.2c0,0,7.6,0,8.4,0c0.9,0,3.4,0,3.4-1.8l0-0.1c0-1.8-2.5-1.9-3.4-1.9c-0.9,0-8.4,0-8.4,0V7.8
	h13.6c0,0,0,2.3,0,3.6s2.1,2.2,3,2.2l0.2,0c0.9,0,3-1,3-2.2s0-3.6,0-3.6h13.6v7.2c0,0-7.6,0-8.4,0C198.9,14.9,196.4,15.1,196.4,16.9
	L196.4,16.9z"/>
<path class="st2" d="M267.7,17c0,1.8,2.5,1.9,3.4,1.9s8.4,0,8.4,0V26h-13.6c0,0,0-2.3,0-3.6s-2.1-2.2-3-2.2l-0.2,0c-0.9,0-3,1-3,2.2
	s0,3.6,0,3.6h-13.6v-7.2c0,0,7.6,0,8.4,0s3.4,0,3.4-1.8l0-0.1c0-1.8-2.5-1.9-3.4-1.9c-0.9,0-8.4,0-8.4,0V7.9h13.6c0,0,0,2.3,0,3.6
	s2.1,2.2,3,2.2l0.2,0c0.9,0,3-1,3-2.2s0-3.6,0-3.6h13.6v7.2c0,0-7.6,0-8.4,0S267.7,15.2,267.7,17L267.7,17z"/>
<path class="st2" d="M339.4,17.3c0,1.8,2.5,1.9,3.4,1.9c0.9,0,8.4,0,8.4,0v7.2h-13.6c0,0,0-2.3,0-3.6s-2.1-2.2-3-2.2l-0.2,0
	c-0.9,0-3,1-3,2.2s0,3.6,0,3.6h-13.6v-7.2c0,0,7.6,0,8.4,0c0.9,0,3.4,0,3.4-1.8l0-0.1c0-1.8-2.5-1.9-3.4-1.9s-8.4,0-8.4,0V8.2h13.6
	c0,0,0,2.3,0,3.6s2.1,2.2,3,2.2l0.2,0c0.9,0,3-1,3-2.2s0-3.6,0-3.6h13.6v7.2c0,0-7.6,0-8.4,0C341.9,15.4,339.4,15.5,339.4,17.3
	L339.4,17.3z"/>
<rect x="605.6" y="5.5" class="st1" width="14.7" height="23.1"/>
<path class="st2" d="M614.8,17c0-2.1,3.2-2.8,3.2-2.8V7.6h-10.4v6.5c0,0,3.2,0.6,3.2,2.8l0,0.1c0,2.2-3.2,2.8-3.2,2.8v6.5H618V20
	c0,0-3.2-0.7-3.2-2.8L614.8,17z"/>
<polygon class="st1" points="630.9,19.7 634.8,19.7 634.8,28.5 623.7,28.5 623.7,19.7 627.7,19.7 627.7,14.4 623.7,14.4 623.7,5.6 
	634.8,5.6 634.8,14.4 630.9,14.4 "/>
<rect x="394.9" y="-1.6" transform="matrix(4.480245e-11 -1 1 4.480245e-11 389.6084 423.1917)" class="st1" width="23" height="36.9"/>
<rect x="466.5" y="-1.6" transform="matrix(4.480245e-11 -1 1 4.480245e-11 461.2036 494.7869)" class="st1" width="23" height="36.9"/>
<rect x="538.1" y="-1.6" transform="matrix(4.496054e-11 -1 1 4.496054e-11 532.7988 566.3821)" class="st1" width="23" height="36.9"/>
<path class="st1" d="M371.1,19.7c0.9,0,1.4,0.4,2.1,1.1v7.6h10.8v-9.3h-9.1c0,0-1.3-0.5-1.3-2.4l0,0c0-1.9,1.3-2.4,1.3-2.4h9.1V5.1
	h-10.8v7.6c-0.7,0.7-1.2,1.1-2.1,1.1l-0.1,0c-0.9,0-1.4-0.4-2.1-1.1V5.1h-10.8v9.3h9.1c0,0,1.3,0.5,1.3,2.4l0,0
	c0,1.9-1.3,2.4-1.3,2.4h-9.1v9.3h10.8v-7.6c0.7-0.7,1.2-1.1,2.1-1.1L371.1,19.7z"/>
<path class="st1" d="M441.2,19.3c0.9,0,1.4,0.4,2.1,1.1V28H454v-9.3H445c0,0-1.3-0.5-1.3-2.4l0,0c0-1.9,1.3-2.4,1.3-2.4h9.1V4.7
	h-10.8v7.6c-0.7,0.7-1.2,1.1-2.1,1.1l-0.1,0c-0.9,0-1.4-0.4-2.1-1.1V4.7h-10.8V14h9.1c0,0,1.3,0.5,1.3,2.4l0,0
	c0,1.9-1.3,2.4-1.3,2.4h-9.1V28H439v-7.6c0.7-0.7,1.2-1.1,2.1-1.1L441.2,19.3z"/>
<path class="st1" d="M513.2,19c0.9,0,1.4,0.4,2.1,1.1v7.6H526v-9.3H517c0,0-1.3-0.5-1.3-2.4l0,0c0-1.9,1.3-2.4,1.3-2.4h9.1V4.4
	h-10.8V12c-0.7,0.7-1.2,1.1-2.1,1.1l-0.1,0c-0.9,0-1.4-0.4-2.1-1.1V4.4h-10.8v9.3h9.1c0,0,1.3,0.5,1.3,2.4l0,0
	c0,1.9-1.3,2.4-1.3,2.4h-9.1v9.3H511v-7.6c0.7-0.7,1.2-1.1,2.1-1.1L513.2,19z"/>
<path class="st2" d="M411,16.5c0,1.8,2.5,1.9,3.4,1.9c0.9,0,8.4,0,8.4,0v7.2h-13.6c0,0,0-2.3,0-3.6s-2.1-2.2-3-2.2l-0.2,0
	c-0.9,0-3,1-3,2.2s0,3.6,0,3.6h-13.6v-7.2c0,0,7.6,0,8.4,0c0.9,0,3.4,0,3.4-1.8l0-0.1c0-1.8-2.5-1.9-3.4-1.9s-8.4,0-8.4,0V7.4h13.6
	c0,0,0,2.3,0,3.6s2.1,2.2,3,2.2l0.2,0c0.9,0,3-1,3-2.2s0-3.6,0-3.6h13.6v7.2c0,0-7.6,0-8.4,0C413.5,14.6,411,14.7,411,16.5L411,16.5
	z"/>
<path class="st2" d="M482.3,16.7c0,1.8,2.5,1.9,3.4,1.9c0.9,0,8.4,0,8.4,0v7.2h-13.6c0,0,0-2.3,0-3.6s-2.1-2.2-3-2.2l-0.2,0
	c-0.9,0-3,1-3,2.2s0,3.6,0,3.6h-13.6v-7.2c0,0,7.6,0,8.4,0c0.9,0,3.4,0,3.4-1.8l0-0.1c0-1.8-2.5-1.9-3.4-1.9s-8.4,0-8.4,0V7.5h13.6
	c0,0,0,2.3,0,3.6s2.1,2.2,3,2.2l0.2,0c0.9,0,3-1,3-2.2s0-3.6,0-3.6h13.6v7.2c0,0-7.6,0-8.4,0C484.8,14.7,482.3,14.9,482.3,16.7
	L482.3,16.7z"/>
<path class="st2" d="M554,17c0,1.8,2.5,1.9,3.4,1.9s8.4,0,8.4,0V26h-13.6c0,0,0-2.3,0-3.6s-2.1-2.2-3-2.2l-0.2,0c-0.9,0-3,1-3,2.2
	s0,3.6,0,3.6h-13.6v-7.2c0,0,7.6,0,8.4,0c0.9,0,3.4,0,3.4-1.8l0-0.1c0-1.8-2.5-1.9-3.4-1.9s-8.4,0-8.4,0V7.9h13.6c0,0,0,2.3,0,3.6
	s2.1,2.2,3,2.2l0.2,0c0.9,0,3-1,3-2.2s0-3.6,0-3.6h13.6v7.2c0,0-7.6,0-8.4,0S554,15.2,554,17L554,17z"/>
<path class="st1" d="M586.4,19.2c0.9,0,1.4,0.4,2.1,1.1v7.6h10.8v-9.3h-9.1c0,0-1.3-0.5-1.3-2.4l0,0c0-1.9,1.3-2.4,1.3-2.4h9.1V4.5
	h-10.8v7.6c-0.7,0.7-1.2,1.1-2.1,1.1l-0.1,0c-0.9,0-1.4-0.4-2.1-1.1V4.5h-10.8v9.3h9.1c0,0,1.3,0.5,1.3,2.4l0,0
	c0,1.9-1.3,2.4-1.3,2.4h-9.1v9.3h10.8v-7.6c0.7-0.7,1.2-1.1,2.1-1.1L586.4,19.2z"/>
</svg>
