<?xml version="1.0" encoding="utf-8"?>
<!-- Generator: Adobe Illustrator 24.0.3, SVG Export Plug-In . SVG Version: 6.00 Build 0)  -->
<svg version="1.1" id="Layer_1" xmlns="http://www.w3.org/2000/svg" xmlns:xlink="http://www.w3.org/1999/xlink" x="0px" y="0px"
	 viewBox="0 0 72 72" style="enable-background:new 0 0 72 72;" xml:space="preserve">
<style type="text/css">
	.st0{fill:#07D37A;}
</style>
<path class="st0" d="M32.5,36c-6.3,4.1-20.5,6.3-16.5,12.8s11.9-5.9,18.3-9.8c0,7.4-6,20.7,1.7,20.7s1.8-13.3,1.8-20.7
	c6.3,3.9,14.2,16.3,18.3,9.8S45.9,40.1,39.5,36c6.3-4.1,20.5-6.3,16.5-12.8S44.1,29.1,37.7,33c0-7.4,5.9-20.7-1.8-20.7
	S34.3,25.6,34.3,33c-6.3-3.9-14.2-16.3-18.3-9.8S26.1,31.9,32.5,36z"/>
</svg>
