<?xml version="1.0" encoding="utf-8"?>
<!-- Generator: Adobe Illustrator 24.0.3, SVG Export Plug-In . SVG Version: 6.00 Build 0)  -->
<svg version="1.1" id="Layer_1" xmlns="http://www.w3.org/2000/svg" xmlns:xlink="http://www.w3.org/1999/xlink" x="0px" y="0px"
	 viewBox="0 0 202.5 278" style="enable-background:new 0 0 202.5 278;" xml:space="preserve">
<style type="text/css">
	.st0{fill:#FFFDF5;}
	.st1{fill:#96D0D6;}
	.st2{fill:none;stroke:#F4B5C2;stroke-width:19;stroke-miterlimit:10;}
</style>
<rect x="12.6" y="10.2" class="st0" width="177" height="257.7"/>
<g>
	<g>
		<path d="M183.5,146v112l-81.4,0l-1,0H19.2V140.1V21.5h76.4l2.8,0h85.1v118.6V146z M178.4,129.9V77.4c0-10.6-10.6-17.3-10.6-17.3
			v-8.3h-4.3v-4.6h4v-4h4.3v4h6.7c0,0,0-3.8,0-10.4c-7.8,0-10.2-7.4-10.2-10.8c-2.7,0-10.2,0-10.2,0v6.6h3.8v5.2h-4v3.4h-4.7v-3.4
			h-7.5c0,0-6.1-11.5-17.1-11.5c-3.1,0-30.1,0-30.1,0l-2.8,0c0,0-18.3,0-21.5,0c-11,0-17.1,11.5-17.1,11.5h-7.5v3.4h-4.7v-3.4h-4
			v-5.2h3.8v-6.6c0,0-7.5,0-10.2,0c0,3.5-2.4,10.8-10.2,10.8c0,6.6,0,10.4,0,10.4H31v-4h4.3v4h4v4.6H35v8.3c0,0-10.6,6.7-10.6,17.3
			v62.8l0,71.9h0.4c0-2.2,2.3-5.6,5.9-5.6c2.3,0,4,1.7,4,3.4c0,1.4-0.8,2.2-1.5,2.2c0,0-0.6-1.1-2.4-1.1c-1.1,0-2.5,1.7-2.5,3.2
			c0,4,2.9,6.9,6.7,6.9c2.4,0,4.9-1.5,4.9-3.1c0.7,0.7,1.6,1.8,1.6,3.2c0,1.4-0.3,1.8-0.3,1.8s0.6-0.1,2.4-0.1
			c5.5,0,11.3,4.7,11.3,11.2c0,1.5-0.1,2.2-0.1,2.2s1.1-0.3,2.5-0.3s2.2,0.7,2.2,0.7s-3.2,1.5-3.2,5.7c0,4.6,4.1,7.2,7.1,7.2
			c3,0,3.9-1.6,3.9-3.3s-1.4-2.4-1.4-2.4s0.7-1.5,2.8-1.5s2.9,1.2,2.9,3.7c0,4.5-4.9,6.8-4.9,6.8h34.8l0.6,0l34.2,0
			c0,0-4.9-2.3-4.9-6.8c0-2.5,0.8-3.7,2.9-3.7s2.8,1.5,2.8,1.5s-1.4,0.8-1.4,2.4c0,1.6,0.9,3.3,3.9,3.3c3,0,7.1-2.6,7.1-7.2
			c0-4.2-3.2-5.7-3.2-5.7s0.8-0.7,2.2-0.7s2.5,0.3,2.5,0.3s-0.1-0.7-0.1-2.2c0-6.6,5.8-11.2,11.3-11.2c1.8,0,2.4,0.1,2.4,0.1
			s-0.3-0.4-0.3-1.8c0-1.4,0.9-2.5,1.6-3.2c0,1.6,2.5,3.1,4.9,3.1c3.8,0,6.7-2.9,6.7-6.9c0-1.5-1.3-3.2-2.5-3.2
			c-1.8,0-2.4,1.1-2.4,1.1c-0.7,0-1.5-0.7-1.5-2.2c0-1.8,1.7-3.4,4-3.4c3.7,0,5.9,3.5,5.9,5.6h0.4l0-71.9V129.9z M49.3,26.3v6.6h5.4
			c0,0,3.6-5.1,6.7-6.6H49.3z M24.4,64c1.4-3.1,6.6-6.7,6.6-6.7v-5.4h-6.6V64z M26.2,24.5c-2.1,0-3.9,1.7-3.9,3.9s1.7,3.9,3.9,3.9
			s3.9-1.7,3.9-3.9S28.3,24.5,26.2,24.5z M141.3,26.3c3.1,1.4,6.7,6.6,6.7,6.6h5.4v-6.6H141.3z M178.3,51.8h-6.6v5.4
			c0,0,5.1,3.6,6.6,6.7V51.8z M172.7,28.4c0,2.1,1.7,3.9,3.9,3.9c2.1,0,3.9-1.7,3.9-3.9s-1.7-3.9-3.9-3.9
			C174.4,24.5,172.7,26.3,172.7,28.4z M157.7,252.9c0,0,0-3.5,0-5.5c-3.5-0.2-6.8-4.3-7.6-5.4c0,7.9-5.6,10.2-7.7,10.9H157.7z
			 M178.5,237.1c0,0-3.1,0-5.7,0c0,1.4-0.8,4.7-3.4,4.7c-2.6,0-3.1-3.6-3.1-3.6s3.3,1.1,3.3-3.9c0-4.3-4.1-8.5-9.5-8.5
			c-5.4,0-9.1,4-9.1,9s5,9.9,9.1,9.9c4.7,0,4.6-3.5,4.6-3.5s2,0.7,2,3c0,2.8-4.4,3.5-4.4,3.5v5.2h16.2V237.1z M178.5,215.9
			c-2.1,9.2-10.5,9-10.5,9s4.6,3.4,4.6,7.7l5.9,0C178.5,232.6,178.5,221.4,178.5,215.9z M60.3,252.9c-2.1-0.7-7.7-3-7.7-10.9
			c-0.8,1.1-4,5.2-7.6,5.4c0,2,0,5.5,0,5.5H60.3z M24.2,252.9h16.2v-5.2c0,0-4.4-0.7-4.4-3.5c0-2.3,2-3,2-3s-0.1,3.5,4.6,3.5
			c4.1,0,9.1-4.9,9.1-9.9s-3.8-9-9.1-9s-9.5,4.3-9.5,8.5c0,5,3.3,3.9,3.3,3.9s-0.5,3.6-3.1,3.6s-3.4-3.3-3.4-4.7c-2.6,0-5.7,0-5.7,0
			V252.9z M24.2,232.6l5.9,0c0-4.2,4.6-7.7,4.6-7.7s-8.4,0.2-10.5-9C24.2,221.4,24.2,232.6,24.2,232.6z"/>
	</g>
	<g>
		<path class="st1" d="M183.5,143.9v112l-81.4,0l-1,0H19.2V138V19.3h76.4l2.8,0h85.1V138V143.9z M178.4,127.7V75.3
			c0-10.6-10.6-17.3-10.6-17.3v-8.3h-4.3v-4.6h4v-4h4.3v4h6.7c0,0,0-3.8,0-10.4c-7.8,0-10.2-7.4-10.2-10.8c-2.7,0-10.2,0-10.2,0v6.6
			h3.8v5.2h-4v3.4h-4.7v-3.4h-7.5c0,0-6.1-11.5-17.1-11.5c-3.1,0-30.1,0-30.1,0l-2.8,0c0,0-18.3,0-21.5,0c-11,0-17.1,11.5-17.1,11.5
			h-7.5v3.4h-4.7v-3.4h-4v-5.2h3.8V24c0,0-7.5,0-10.2,0c0,3.5-2.4,10.8-10.2,10.8c0,6.6,0,10.4,0,10.4H31v-4h4.3v4h4v4.6H35V58
			c0,0-10.6,6.7-10.6,17.3v62.8l0,71.9h0.4c0-2.2,2.3-5.6,5.9-5.6c2.3,0,4,1.7,4,3.4c0,1.4-0.8,2.2-1.5,2.2c0,0-0.6-1.1-2.4-1.1
			c-1.1,0-2.5,1.7-2.5,3.2c0,4,2.9,6.9,6.7,6.9c2.4,0,4.9-1.5,4.9-3.1c0.7,0.7,1.6,1.8,1.6,3.2s-0.3,1.8-0.3,1.8s0.6-0.1,2.4-0.1
			c5.5,0,11.3,4.7,11.3,11.2c0,1.5-0.1,2.2-0.1,2.2s1.1-0.3,2.5-0.3s2.2,0.7,2.2,0.7s-3.2,1.5-3.2,5.7c0,4.6,4.1,7.2,7.1,7.2
			c3,0,3.9-1.6,3.9-3.3c0-1.6-1.4-2.4-1.4-2.4s0.7-1.5,2.8-1.5s2.9,1.2,2.9,3.7c0,4.5-4.9,6.8-4.9,6.8h34.8l0.6,0l34.2,0
			c0,0-4.9-2.3-4.9-6.8c0-2.5,0.8-3.7,2.9-3.7s2.8,1.5,2.8,1.5s-1.4,0.8-1.4,2.4s0.9,3.3,3.9,3.3c3,0,7.1-2.6,7.1-7.2
			c0-4.2-3.2-5.7-3.2-5.7s0.8-0.7,2.2-0.7s2.5,0.3,2.5,0.3s-0.1-0.7-0.1-2.2c0-6.6,5.8-11.2,11.3-11.2c1.8,0,2.4,0.1,2.4,0.1
			s-0.3-0.4-0.3-1.8c0-1.4,0.9-2.5,1.6-3.2c0,1.6,2.5,3.1,4.9,3.1c3.8,0,6.7-2.9,6.7-6.9c0-1.5-1.3-3.2-2.5-3.2
			c-1.8,0-2.4,1.1-2.4,1.1c-0.7,0-1.5-0.7-1.5-2.2c0-1.8,1.7-3.4,4-3.4c3.7,0,5.9,3.5,5.9,5.6h0.4l0-71.9V127.7z M49.3,24.2v6.6h5.4
			c0,0,3.6-5.1,6.7-6.6H49.3z M24.4,61.8c1.4-3.1,6.6-6.7,6.6-6.7v-5.4h-6.6V61.8z M26.2,22.4c-2.1,0-3.9,1.7-3.9,3.9
			s1.7,3.9,3.9,3.9s3.9-1.7,3.9-3.9S28.3,22.4,26.2,22.4z M141.3,24.2c3.1,1.4,6.7,6.6,6.7,6.6h5.4v-6.6H141.3z M178.3,49.7h-6.6
			v5.4c0,0,5.1,3.6,6.6,6.7V49.7z M172.7,26.2c0,2.1,1.7,3.9,3.9,3.9c2.1,0,3.9-1.7,3.9-3.9s-1.7-3.9-3.9-3.9
			C174.4,22.4,172.7,24.1,172.7,26.2z M157.7,250.8c0,0,0-3.5,0-5.5c-3.5-0.2-6.8-4.3-7.6-5.4c0,7.9-5.6,10.2-7.7,10.9H157.7z
			 M178.5,235c0,0-3.1,0-5.7,0c0,1.4-0.8,4.7-3.4,4.7c-2.6,0-3.1-3.6-3.1-3.6s3.3,1.1,3.3-3.9c0-4.3-4.1-8.5-9.5-8.5
			c-5.4,0-9.1,4-9.1,9c0,5,5,9.9,9.1,9.9c4.7,0,4.6-3.5,4.6-3.5s2,0.7,2,3c0,2.8-4.4,3.5-4.4,3.5v5.2h16.2V235z M178.5,213.8
			c-2.1,9.2-10.5,9-10.5,9s4.6,3.4,4.6,7.7l5.9,0C178.5,230.5,178.5,219.2,178.5,213.8z M60.3,250.8c-2.1-0.7-7.7-3-7.7-10.9
			c-0.8,1.1-4,5.2-7.6,5.4c0,2,0,5.5,0,5.5H60.3z M24.2,250.8h16.2v-5.2c0,0-4.4-0.7-4.4-3.5c0-2.3,2-3,2-3s-0.1,3.5,4.6,3.5
			c4.1,0,9.1-4.9,9.1-9.9s-3.8-9-9.1-9s-9.5,4.3-9.5,8.5c0,5,3.3,3.9,3.3,3.9s-0.5,3.6-3.1,3.6s-3.4-3.3-3.4-4.7c-2.6,0-5.7,0-5.7,0
			V250.8z M24.2,230.5l5.9,0c0-4.2,4.6-7.7,4.6-7.7s-8.4,0.2-10.5-9C24.2,219.2,24.2,230.5,24.2,230.5z"/>
	</g>
</g>
<rect x="9.6" y="9.7" class="st2" width="183.6" height="257.5"/>
</svg>
