<?xml version="1.0" encoding="utf-8"?>
<!-- Generator: Adobe Illustrator 23.0.6, SVG Export Plug-In . SVG Version: 6.00 Build 0)  -->
<svg version="1.1" id="Layer_1" xmlns="http://www.w3.org/2000/svg" xmlns:xlink="http://www.w3.org/1999/xlink" x="0px" y="0px"
	 viewBox="0 0 879.99 465.37" style="enable-background:new 0 0 879.99 465.37;" xml:space="preserve">
<style type="text/css">
	.st0{fill:#F89D73;}
	.st1{fill:#C32B47;}
</style>
<g>
	<rect x="32.21" y="61.83" class="st0" width="3.47" height="345.87"/>
</g>
<g>
	<rect x="24" y="61.83" class="st0" width="3.47" height="345.87"/>
</g>
<g>
	<rect x="15.82" y="61.83" class="st0" width="3.47" height="345.87"/>
</g>
<g>
	<rect x="843.46" y="61.83" class="st0" width="3.47" height="345.87"/>
</g>
<g>
	<rect x="835.25" y="61.83" class="st0" width="3.47" height="345.87"/>
</g>
<g>
	<rect x="827.06" y="61.83" class="st0" width="3.47" height="345.87"/>
</g>
<g>
	<path class="st1" d="M833.6,40.91c-0.3-1.94-0.46-2.02-1.98-0.91l-3.69,2.59l-1.67-1.67l2.55-3.62c1.18-1.71,1.1-1.64-0.76-2.06
		l-4.49-0.76v-2.44l4.46-0.8c1.94-0.3,1.87-0.42,0.76-2.06l-2.51-3.58l1.67-1.67l3.69,2.59c1.52,1.1,1.67,1.1,1.98-0.91l0.76-4.38
		h2.44l0.76,4.38c0.3,2.06,0.42,1.98,1.98,0.91l3.69-2.59l1.67,1.67l-2.51,3.58c-1.22,1.6-1.14,1.75,0.76,2.06l4.45,0.8v2.44
		l-4.45,0.76c-1.87,0.38-2.02,0.38-0.76,2.06l2.51,3.62l-1.67,1.67l-3.69-2.59c-1.56-1.07-1.68-1.07-1.98,0.91l-0.76,4.38h-2.44
		L833.6,40.91z"/>
</g>
<g>
	<path class="st1" d="M23.97,40.91c-0.3-1.94-0.46-2.02-1.98-0.91l-3.69,2.59l-1.68-1.67l2.55-3.62c1.18-1.71,1.1-1.64-0.76-2.06
		l-4.49-0.76v-2.44l4.45-0.8c1.94-0.3,1.87-0.42,0.76-2.06l-2.51-3.58l1.68-1.67l3.69,2.59c1.52,1.1,1.68,1.1,1.98-0.91l0.76-4.38
		h2.44l0.76,4.38c0.3,2.06,0.42,1.98,1.98,0.91l3.69-2.59l1.68,1.67l-2.51,3.58c-1.22,1.6-1.14,1.75,0.76,2.06l4.46,0.8v2.44
		l-4.46,0.76c-1.87,0.38-2.02,0.38-0.76,2.06l2.51,3.62l-1.68,1.67l-3.69-2.59c-1.56-1.07-1.67-1.07-1.98,0.91l-0.76,4.38h-2.44
		L23.97,40.91z"/>
</g>
<g>
	<path class="st1" d="M834.28,446.09c-0.3-1.94-0.46-2.02-1.98-0.91l-3.69,2.59l-1.67-1.67l2.55-3.62c1.18-1.71,1.1-1.64-0.76-2.06
		l-4.49-0.76v-2.44l4.46-0.8c1.94-0.3,1.87-0.42,0.76-2.06l-2.51-3.58l1.67-1.67l3.69,2.59c1.52,1.1,1.67,1.1,1.98-0.91l0.76-4.38
		h2.44l0.76,4.38c0.3,2.06,0.42,1.98,1.98,0.91l3.69-2.59l1.67,1.67l-2.51,3.58c-1.22,1.6-1.14,1.75,0.76,2.06l4.45,0.8v2.44
		l-4.45,0.76c-1.87,0.38-2.02,0.38-0.76,2.06l2.51,3.62l-1.67,1.67l-3.69-2.59c-1.56-1.07-1.68-1.07-1.98,0.91l-0.76,4.38h-2.44
		L834.28,446.09z"/>
</g>
<g>
	<path class="st1" d="M22.1,446.09c-0.3-1.94-0.46-2.02-1.98-0.91l-3.69,2.59l-1.68-1.67l2.55-3.62c1.18-1.71,1.1-1.64-0.76-2.06
		l-4.49-0.76v-2.44l4.45-0.8c1.94-0.3,1.87-0.42,0.76-2.06l-2.51-3.58l1.68-1.67l3.69,2.59c1.52,1.1,1.68,1.1,1.98-0.91l0.76-4.38
		h2.44l0.76,4.38c0.3,2.06,0.42,1.98,1.98,0.91l3.69-2.59l1.68,1.67l-2.51,3.58c-1.22,1.6-1.14,1.75,0.76,2.06l4.46,0.8v2.44
		l-4.46,0.76c-1.87,0.38-2.02,0.38-0.76,2.06l2.51,3.62l-1.68,1.67l-3.69-2.59c-1.56-1.07-1.67-1.07-1.98,0.91l-0.76,4.38h-2.44
		L22.1,446.09z"/>
</g>
<g>
	<rect x="59.01" y="26.99" class="st0" width="741.75" height="2.9"/>
</g>
<g>
	<rect x="59.01" y="34.79" class="st0" width="741.75" height="2.9"/>
</g>
<g>
	<rect x="59.01" y="434.03" class="st0" width="741.75" height="2.9"/>
</g>
<g>
	<rect x="59.01" y="441.83" class="st0" width="741.75" height="2.9"/>
</g>
</svg>
