<?xml version="1.0" encoding="utf-8"?>
<!-- Generator: Adobe Illustrator 24.0.3, SVG Export Plug-In . SVG Version: 6.00 Build 0)  -->
<svg version="1.1" id="Layer_1" xmlns="http://www.w3.org/2000/svg" xmlns:xlink="http://www.w3.org/1999/xlink" x="0px" y="0px"
	 viewBox="0 0 707.8 33.5" style="enable-background:new 0 0 707.8 33.5;" xml:space="preserve">
<style type="text/css">
	.st0{fill:#FCB17A;}
	.st1{fill:#FFF2E9;}
	.st2{fill:#FF5D55;}
</style>
<polygon class="st0" points="0.3,0.9 707.3,0.9 707.3,32.5 0.6,32.5 "/>
<rect x="102" y="-1.5" transform="matrix(4.480245e-11 -1 1 4.480245e-11 96.5602 130.3201)" class="st1" width="23" height="36.9"/>
<rect x="173.5" y="-1.5" transform="matrix(4.488149e-11 -1 1 4.488149e-11 168.1554 201.9153)" class="st1" width="23" height="36.9"/>
<rect x="245.1" y="-1.5" transform="matrix(4.480245e-11 -1 1 4.480245e-11 239.7506 273.5105)" class="st1" width="23" height="36.9"/>
<rect x="316.7" y="-1.5" transform="matrix(4.480245e-11 -1 1 4.480245e-11 311.3458 345.1057)" class="st1" width="23" height="36.9"/>
<rect x="388.3" y="-1.5" transform="matrix(4.496054e-11 -1 1 4.496054e-11 382.941 416.701)" class="st1" width="23" height="36.9"/>
<path class="st1" d="M45.1,19.7c0.9,0,1.4,0.4,2.1,1.1v7.6h10.8v-9.3h-9.1c0,0-1.3-0.5-1.3-2.4l0,0c0-1.9,1.3-2.4,1.3-2.4h9.1V5.1
	H47.1v7.6c-0.7,0.7-1.2,1.1-2.1,1.1l-0.1,0c-0.9,0-1.4-0.4-2.1-1.1V5.1H32.1v9.3h9.1c0,0,1.3,0.5,1.3,2.4l0,0c0,1.9-1.3,2.4-1.3,2.4
	h-9.1v9.3h10.8v-7.6c0.7-0.7,1.2-1.1,2.1-1.1L45.1,19.7z"/>
<path class="st1" d="M149.4,19.7c0.9,0,1.4,0.4,2.1,1.1v7.6h10.8v-9.3h-9.1c0,0-1.3-0.5-1.3-2.4l0,0c0-1.9,1.3-2.4,1.3-2.4h9.1V5.1
	h-10.8v7.6c-0.7,0.7-1.2,1.1-2.1,1.1l-0.1,0c-0.9,0-1.4-0.4-2.1-1.1V5.1h-10.8v9.3h9.1c0,0,1.3,0.5,1.3,2.4l0,0
	c0,1.9-1.3,2.4-1.3,2.4h-9.1v9.3h10.8v-7.6c0.7-0.7,1.2-1.1,2.1-1.1L149.4,19.7z"/>
<path class="st1" d="M220.9,19.7c0.9,0,1.4,0.4,2.1,1.1v7.6h10.8v-9.3h-9.1c0,0-1.3-0.5-1.3-2.4l0,0c0-1.9,1.3-2.4,1.3-2.4h9.1V5.1
	H223v7.6c-0.7,0.7-1.2,1.1-2.1,1.1l-0.1,0c-0.9,0-1.4-0.4-2.1-1.1V5.1H208v9.3h9.1c0,0,1.3,0.5,1.3,2.4l0,0c0,1.9-1.3,2.4-1.3,2.4
	H208v9.3h10.8v-7.6c0.7-0.7,1.2-1.1,2.1-1.1L220.9,19.7z"/>
<path class="st1" d="M292,19.7c0.9,0,1.4,0.4,2.1,1.1v7.6h10.8v-9.3h-9.1c0,0-1.3-0.5-1.3-2.4l0,0c0-1.9,1.3-2.4,1.3-2.4h9.1V5.1
	H294v7.6c-0.7,0.7-1.2,1.1-2.1,1.1l-0.1,0c-0.9,0-1.4-0.4-2.1-1.1V5.1H279v9.3h9.1c0,0,1.3,0.5,1.3,2.4l0,0c0,1.9-1.3,2.4-1.3,2.4
	H279v9.3h10.8v-7.6c0.7-0.7,1.2-1.1,2.1-1.1L292,19.7z"/>
<path class="st1" d="M363.9,19.7c0.9,0,1.4,0.4,2.1,1.1v7.6h10.8v-9.3h-9.1c0,0-1.3-0.5-1.3-2.4l0,0c0-1.9,1.3-2.4,1.3-2.4h9.1V5.1
	H366v7.6c-0.7,0.7-1.2,1.1-2.1,1.1l-0.1,0c-0.9,0-1.4-0.4-2.1-1.1V5.1H351v9.3h9.1c0,0,1.3,0.5,1.3,2.4l0,0c0,1.9-1.3,2.4-1.3,2.4
	H351v9.3h10.8v-7.6c0.7-0.7,1.2-1.1,2.1-1.1L363.9,19.7z"/>
<path class="st2" d="M118.4,17.2c0,1.8,2.5,1.9,3.4,1.9s8.4,0,8.4,0v7.2h-13.6c0,0,0-2.3,0-3.6s-2.1-2.2-3-2.2l-0.2,0
	c-0.9,0-3,1-3,2.2s0,3.6,0,3.6H96.8V19c0,0,7.6,0,8.4,0c0.9,0,3.4,0,3.4-1.8l0-0.1c0-1.8-2.5-1.9-3.4-1.9c-0.9,0-8.4,0-8.4,0V8.1
	h13.6c0,0,0,2.3,0,3.6s2.1,2.2,3,2.2l0.2,0c0.9,0,3-1,3-2.2s0-3.6,0-3.6h13.6v7.2c0,0-7.6,0-8.4,0S118.4,15.4,118.4,17.2L118.4,17.2
	z"/>
<path class="st2" d="M189.9,17.2c0,1.8,2.5,1.9,3.4,1.9s8.4,0,8.4,0v7.2h-13.6c0,0,0-2.3,0-3.6s-2.1-2.2-3-2.2l-0.2,0
	c-0.9,0-3,1-3,2.2s0,3.6,0,3.6h-13.6V19c0,0,7.6,0,8.4,0s3.4,0,3.4-1.8l0-0.1c0-1.8-2.5-1.9-3.4-1.9s-8.4,0-8.4,0V8.1H182
	c0,0,0,2.3,0,3.6s2.1,2.2,3,2.2l0.2,0c0.9,0,3-1,3-2.2s0-3.6,0-3.6h13.6v7.2c0,0-7.6,0-8.4,0S189.9,15.4,189.9,17.2L189.9,17.2z"/>
<path class="st2" d="M261.5,17.2c0,1.8,2.5,1.9,3.4,1.9c0.9,0,8.4,0,8.4,0v7.2h-13.6c0,0,0-2.3,0-3.6s-2.1-2.2-3-2.2l-0.2,0
	c-0.9,0-3,1-3,2.2s0,3.6,0,3.6H240V19c0,0,7.6,0,8.4,0s3.4,0,3.4-1.8l0-0.1c0-1.8-2.5-1.9-3.4-1.9s-8.4,0-8.4,0V8.1h13.6
	c0,0,0,2.3,0,3.6s2.1,2.2,3,2.2l0.2,0c0.9,0,3-1,3-2.2s0-3.6,0-3.6h13.6v7.2c0,0-7.6,0-8.4,0C264,15.2,261.5,15.4,261.5,17.2
	L261.5,17.2z"/>
<path class="st2" d="M333.1,17.2c0,1.8,2.5,1.9,3.4,1.9c0.9,0,8.4,0,8.4,0v7.2h-13.6c0,0,0-2.3,0-3.6s-2.1-2.2-3-2.2l-0.2,0
	c-0.9,0-3,1-3,2.2s0,3.6,0,3.6h-13.6V19c0,0,7.6,0,8.4,0c0.9,0,3.4,0,3.4-1.8l0-0.1c0-1.8-2.5-1.9-3.4-1.9s-8.4,0-8.4,0V8.1h13.6
	c0,0,0,2.3,0,3.6s2.1,2.2,3,2.2l0.2,0c0.9,0,3-1,3-2.2s0-3.6,0-3.6h13.6v7.2c0,0-7.6,0-8.4,0C335.6,15.2,333.1,15.4,333.1,17.2
	L333.1,17.2z"/>
<path class="st2" d="M404.7,17.2c0,1.8,2.5,1.9,3.4,1.9c0.9,0,8.4,0,8.4,0v7.2h-13.6c0,0,0-2.3,0-3.6s-2.1-2.2-3-2.2l-0.2,0
	c-0.9,0-3,1-3,2.2s0,3.6,0,3.6h-13.6V19c0,0,7.6,0,8.4,0c0.9,0,3.4,0,3.4-1.8l0-0.1c0-1.8-2.5-1.9-3.4-1.9s-8.4,0-8.4,0V8.1h13.6
	c0,0,0,2.3,0,3.6s2.1,2.2,3,2.2l0.2,0c0.9,0,3-1,3-2.2s0-3.6,0-3.6h13.6v7.2c0,0-7.6,0-8.4,0C407.2,15.2,404.7,15.4,404.7,17.2
	L404.7,17.2z"/>
<rect x="61.8" y="5.3" class="st1" width="14.7" height="23.1"/>
<path class="st2" d="M71,16.8c0-2.1,3.2-2.8,3.2-2.8V7.5H63.8V14c0,0,3.2,0.6,3.2,2.8l0,0.1c0,2.2-3.2,2.8-3.2,2.8v6.5h10.4v-6.5
	c0,0-3.2-0.7-3.2-2.8L71,16.8z"/>
<polygon class="st1" points="87,19.6 91,19.6 91,28.4 79.9,28.4 79.9,19.6 83.9,19.6 83.9,14.2 79.9,14.2 79.9,5.4 91,5.4 91,14.2 
	87,14.2 "/>
<rect x="459.7" y="-1.3" transform="matrix(4.496054e-11 -1 1 4.496054e-11 454.0854 488.2696)" class="st1" width="23" height="36.9"/>
<rect x="531.3" y="-1.3" transform="matrix(4.480245e-11 -1 1 4.480245e-11 525.6806 559.8648)" class="st1" width="23" height="36.9"/>
<rect x="602.9" y="-1.3" transform="matrix(4.480245e-11 -1 1 4.480245e-11 597.2758 631.46)" class="st1" width="23" height="36.9"/>
<rect x="674.5" y="-1.3" transform="matrix(4.496054e-11 -1 1 4.496054e-11 668.871 703.0552)" class="st1" width="23" height="36.9"/>
<path class="st1" d="M435.5,19.9c0.9,0,1.4,0.4,2.1,1.1v7.6h10.8v-9.3h-9.1c0,0-1.3-0.5-1.3-2.4l0,0c0-1.9,1.3-2.4,1.3-2.4h9.1V5.3
	h-10.8v7.6c-0.7,0.7-1.2,1.1-2.1,1.1l-0.1,0c-0.9,0-1.4-0.4-2.1-1.1V5.3h-10.8v9.3h9.1c0,0,1.3,0.5,1.3,2.4l0,0
	c0,1.9-1.3,2.4-1.3,2.4h-9.1v9.3h10.8V21c0.7-0.7,1.2-1.1,2.1-1.1L435.5,19.9z"/>
<path class="st1" d="M507.1,19.9c0.9,0,1.4,0.4,2.1,1.1v7.6h10.8v-9.3h-9.1c0,0-1.3-0.5-1.3-2.4l0,0c0-1.9,1.3-2.4,1.3-2.4h9.1V5.3
	h-10.8v7.6c-0.7,0.7-1.2,1.1-2.1,1.1l-0.1,0c-0.9,0-1.4-0.4-2.1-1.1V5.3h-10.8v9.3h9.1c0,0,1.3,0.5,1.3,2.4l0,0
	c0,1.9-1.3,2.4-1.3,2.4h-9.1v9.3h10.8V21c0.7-0.7,1.2-1.1,2.1-1.1L507.1,19.9z"/>
<path class="st1" d="M578.1,19.9c0.9,0,1.4,0.4,2.1,1.1v7.6h10.8v-9.3h-9.1c0,0-1.3-0.5-1.3-2.4l0,0c0-1.9,1.3-2.4,1.3-2.4h9.1V5.3
	h-10.8v7.6c-0.7,0.7-1.2,1.1-2.1,1.1l-0.1,0c-0.9,0-1.4-0.4-2.1-1.1V5.3h-10.8v9.3h9.1c0,0,1.3,0.5,1.3,2.4l0,0
	c0,1.9-1.3,2.4-1.3,2.4h-9.1v9.3h10.8V21c0.7-0.7,1.2-1.1,2.1-1.1L578.1,19.9z"/>
<path class="st1" d="M650,19.9c0.9,0,1.4,0.4,2.1,1.1v7.6h10.8v-9.3h-9.1c0,0-1.3-0.5-1.3-2.4l0,0c0-1.9,1.3-2.4,1.3-2.4h9.1V5.3
	h-10.8v7.6c-0.7,0.7-1.2,1.1-2.1,1.1l-0.1,0c-0.9,0-1.4-0.4-2.1-1.1V5.3h-10.8v9.3h9.1c0,0,1.3,0.5,1.3,2.4l0,0
	c0,1.9-1.3,2.4-1.3,2.4h-9.1v9.3h10.8V21c0.7-0.7,1.2-1.1,2.1-1.1L650,19.9z"/>
<path class="st2" d="M476.1,17.4c0,1.8,2.5,1.9,3.4,1.9c0.9,0,8.4,0,8.4,0v7.2h-13.6c0,0,0-2.3,0-3.6c0-1.2-2.1-2.2-3-2.2l-0.2,0
	c-0.9,0-3,1-3,2.2s0,3.6,0,3.6h-13.6v-7.2c0,0,7.6,0,8.4,0c0.9,0,3.4,0,3.4-1.8l0-0.1c0-1.8-2.5-1.9-3.4-1.9c-0.9,0-8.4,0-8.4,0V8.3
	h13.6c0,0,0,2.3,0,3.6s2.1,2.2,3,2.2l0.2,0c0.9,0,3-1,3-2.2s0-3.6,0-3.6h13.6v7.2c0,0-7.6,0-8.4,0C478.6,15.5,476.1,15.6,476.1,17.4
	L476.1,17.4z"/>
<path class="st2" d="M547.7,17.4c0,1.8,2.5,1.9,3.4,1.9s8.4,0,8.4,0v7.2h-13.6c0,0,0-2.3,0-3.6c0-1.2-2.1-2.2-3-2.2l-0.2,0
	c-0.9,0-3,1-3,2.2s0,3.6,0,3.6h-13.6v-7.2c0,0,7.6,0,8.4,0c0.9,0,3.4,0,3.4-1.8l0-0.1c0-1.8-2.5-1.9-3.4-1.9s-8.4,0-8.4,0V8.3h13.6
	c0,0,0,2.3,0,3.6s2.1,2.2,3,2.2l0.2,0c0.9,0,3-1,3-2.2s0-3.6,0-3.6h13.6v7.2c0,0-7.6,0-8.4,0S547.7,15.6,547.7,17.4L547.7,17.4z"/>
<path class="st2" d="M619.2,17.4c0,1.8,2.5,1.9,3.4,1.9c0.9,0,8.4,0,8.4,0v7.2h-13.6c0,0,0-2.3,0-3.6c0-1.2-2.1-2.2-3-2.2l-0.2,0
	c-0.9,0-3,1-3,2.2s0,3.6,0,3.6h-13.6v-7.2c0,0,7.6,0,8.4,0s3.4,0,3.4-1.8l0-0.1c0-1.8-2.5-1.9-3.4-1.9s-8.4,0-8.4,0V8.3h13.6
	c0,0,0,2.3,0,3.6s2.1,2.2,3,2.2l0.2,0c0.9,0,3-1,3-2.2s0-3.6,0-3.6h13.6v7.2c0,0-7.6,0-8.4,0C621.7,15.5,619.2,15.6,619.2,17.4
	L619.2,17.4z"/>
<path class="st2" d="M690.8,17.4c0,1.8,2.5,1.9,3.4,1.9s8.4,0,8.4,0v7.2H689c0,0,0-2.3,0-3.6c0-1.2-2.1-2.2-3-2.2l-0.2,0
	c-0.9,0-3,1-3,2.2s0,3.6,0,3.6h-13.6v-7.2c0,0,7.6,0,8.4,0c0.9,0,3.4,0,3.4-1.8l0-0.1c0-1.8-2.5-1.9-3.4-1.9s-8.4,0-8.4,0V8.3h13.6
	c0,0,0,2.3,0,3.6s2.1,2.2,3,2.2l0.2,0c0.9,0,3-1,3-2.2s0-3.6,0-3.6h13.6v7.2c0,0-7.6,0-8.4,0S690.8,15.6,690.8,17.4L690.8,17.4z"/>
</svg>
