<?xml version="1.0" encoding="utf-8"?>
<!-- Generator: Adobe Illustrator 23.0.6, SVG Export Plug-In . SVG Version: 6.00 Build 0)  -->
<svg version="1.1" id="Layer_1" xmlns="http://www.w3.org/2000/svg" xmlns:xlink="http://www.w3.org/1999/xlink" x="0px" y="0px"
	 viewBox="0 0 61.98 16.1" style="enable-background:new 0 0 61.98 16.1;" xml:space="preserve">
<style type="text/css">
	.st0{fill:#922D51;}
</style>
<g>
	<path class="st0" d="M58.68,9.66c0,2.06-2.25,3.72-5.26,3.72c-3.32,0-6.24-1.51-8.46-3.35C42.41,7.9,40.26,5.6,37.46,5.6
		c0.68,1.05,0.98,1.85,0.98,3.05c0,3.48-3.88,5.63-7.54,5.63c-3.48,0-7.17-1.66-7.17-4.77c0-2.46,2.49-4.06,4.95-4.06
		c1.08,0,2.25,0.28,3.23,1.05c0.95-0.68,2.21-1.2,3.54-1.48c-1.45-1.48-3.57-2.34-5.97-2.34c-4.65,0-6.83,2.98-9.47,5.41
		c-2.89,2.68-6.12,4.61-10.43,4.61c-1.94,0-3.85-0.55-5.91-2.43c-0.4-0.34,0.15-0.95,0.55-0.62c1.91,1.69,3.57,2.21,5.35,2.21
		c3.48,0,5.38-2.49,7.75-4.71c3.17-2.8,6.95-5.32,12.15-5.32c2.74,0,5.54,1.11,7.29,2.95c0.25-0.03,0.52-0.03,0.77-0.03
		c3.11,0,5.84,1.85,8.4,4.12c2.12,1.88,4.55,3.66,7.48,3.66c2.46,0,4.43-1.2,4.43-2.89s-2.06-2.89-4.15-2.89
		c-1.88,0-2.52,0.77-3.05,2.18c-0.25,0.71-0.8,0.98-1.32,0.98c-0.15,0-0.28,0-0.4-0.03c-0.15-0.31-0.28-0.68-0.28-1.05
		c0-1.38,2-2.92,4.92-2.92C56.41,5.93,58.68,7.56,58.68,9.66z M36.97,8.64c0-1.17-0.31-2.06-0.89-2.89
		c-1.23,0.18-2.55,0.68-3.51,1.29c0.55,0.55,0.92,1.23,0.92,2.03c0,1.08-0.77,1.94-1.66,1.94c-0.89,0-1.6-0.86-1.6-1.94
		c0-0.74,0.4-1.45,1.08-2.06c-0.77-0.55-1.69-0.74-2.61-0.74c-1.94,0-3.48,1.2-3.48,3.23c0,2.68,2.77,3.94,5.69,3.94
		S36.97,11.81,36.97,8.64z M32.66,9.07c0-0.62-0.28-1.14-0.71-1.57C31.4,8,31.06,8.52,31.06,9.07c0,0.58,0.31,1.11,0.77,1.11
		C32.29,10.18,32.66,9.66,32.66,9.07z"/>
</g>
</svg>
