<?xml version="1.0" encoding="utf-8"?>
<!-- Generator: Adobe Illustrator 23.0.6, SVG Export Plug-In . SVG Version: 6.00 Build 0)  -->
<svg version="1.1" id="Layer_1" xmlns="http://www.w3.org/2000/svg" xmlns:xlink="http://www.w3.org/1999/xlink" x="0px" y="0px"
	 viewBox="0 0 37.69 6.59" style="enable-background:new 0 0 37.69 6.59;" xml:space="preserve">
<style type="text/css">
	.st0{fill:#922D51;}
	.st1{fill:#FEFBDD;}
	.st2{fill:#7F132F;}
</style>
<g>
	<path class="st0" d="M28.58,3.64c-4.46,0-7.03,0.25-9.05,0.25c-0.57,0-0.9-0.25-0.98-0.35c0.09-0.11,0.42-0.36,0.98-0.36
		c2.03,0,4.59,0.25,9.05,0.25h4.67c0.14,0,0.14,0.21,0,0.21H28.58z"/>
	<path class="st0" d="M33.32,3.64h-0.06c-0.14,0-0.14-0.21,0-0.21h0.06c0.34,0,0.61-0.03,0.61-0.57c0.79,0.49,1.28,0.57,1.88,0.57
		c0.14,0,0.14,0.21,0,0.21c-0.6,0-1.08,0.08-1.88,0.57C33.93,3.67,33.65,3.64,33.32,3.64z"/>
</g>
<g>
	<path class="st0" d="M4.03,3.66c-0.14,0-0.14-0.21,0-0.21h4.67c4.46,0,7.03-0.25,9.05-0.25c0.57,0,0.89,0.25,0.98,0.36
		c-0.09,0.1-0.42,0.35-0.98,0.35c-2.03,0-4.59-0.25-9.05-0.25H4.03z"/>
	<path class="st0" d="M3.35,4.23C2.55,3.74,2.07,3.66,1.47,3.66c-0.14,0-0.14-0.21,0-0.21c0.6,0,1.08-0.08,1.88-0.57
		c0,0.53,0.27,0.57,0.61,0.57h0.06c0.14,0,0.14,0.21,0,0.21H3.96C3.62,3.66,3.35,3.69,3.35,4.23z"/>
</g>
</svg>
