<?xml version="1.0" encoding="utf-8"?>
<!-- Generator: Adobe Illustrator 23.0.6, SVG Export Plug-In . SVG Version: 6.00 Build 0)  -->
<svg version="1.1" id="Layer_1" xmlns="http://www.w3.org/2000/svg" xmlns:xlink="http://www.w3.org/1999/xlink" x="0px" y="0px"
	 viewBox="0 0 61.98 16.1" style="enable-background:new 0 0 61.98 16.1;" xml:space="preserve">
<style type="text/css">
	.st0{fill:#922D51;}
</style>
<g>
	<path class="st0" d="M53.58,10.18c-2.92,0-4.92-1.54-4.92-2.92c0-0.37,0.12-0.74,0.28-1.05c0.12-0.03,0.25-0.03,0.4-0.03
		c0.52,0,1.08,0.28,1.32,0.98c0.52,1.42,1.17,2.18,3.05,2.18c2.09,0,4.15-1.2,4.15-2.89s-1.97-2.89-4.43-2.89
		c-2.92,0-5.35,1.78-7.48,3.66c-2.55,2.28-5.29,4.12-8.4,4.12c-0.25,0-0.52,0-0.77-0.03c-1.75,1.85-4.55,2.95-7.29,2.95
		c-5.2,0-8.98-2.52-12.15-5.32c-2.37-2.21-4.28-4.71-7.75-4.71c-1.78,0-3.45,0.52-5.35,2.21C3.83,6.8,3.28,6.18,3.68,5.84
		c2.06-1.88,3.97-2.43,5.91-2.43c4.31,0,7.54,1.94,10.43,4.61c2.65,2.43,4.83,5.41,9.47,5.41c2.4,0,4.52-0.86,5.97-2.34
		c-1.32-0.28-2.58-0.8-3.54-1.48c-0.98,0.77-2.15,1.05-3.23,1.05c-2.46,0-4.95-1.6-4.95-4.06c0-3.11,3.69-4.77,7.17-4.77
		c3.66,0,7.54,2.15,7.54,5.63c0,1.2-0.31,2-0.98,3.05c2.8,0,4.95-2.31,7.51-4.43c2.21-1.85,5.14-3.35,8.46-3.35
		c3.01,0,5.26,1.66,5.26,3.72C58.68,8.55,56.41,10.18,53.58,10.18z M30.91,2.67c-2.92,0-5.69,1.26-5.69,3.94
		c0,2.03,1.54,3.23,3.48,3.23c0.92,0,1.85-0.18,2.61-0.74c-0.68-0.62-1.08-1.32-1.08-2.06c0-1.08,0.71-1.94,1.6-1.94
		c0.89,0,1.66,0.86,1.66,1.94c0,0.8-0.37,1.48-0.92,2.03c0.95,0.62,2.28,1.11,3.51,1.29c0.58-0.83,0.89-1.72,0.89-2.89
		C36.97,4.3,33.83,2.67,30.91,2.67z M31.83,5.93c-0.46,0-0.77,0.52-0.77,1.11c0,0.55,0.34,1.08,0.89,1.57
		c0.43-0.43,0.71-0.95,0.71-1.57C32.66,6.46,32.29,5.93,31.83,5.93z"/>
</g>
</svg>
