<?xml version="1.0" encoding="utf-8"?>
<!-- Generator: Adobe Illustrator 24.0.3, SVG Export Plug-In . SVG Version: 6.00 Build 0)  -->
<svg version="1.1" id="Layer_1" xmlns="http://www.w3.org/2000/svg" xmlns:xlink="http://www.w3.org/1999/xlink" x="0px" y="0px"
	 viewBox="0 0 416 122" style="enable-background:new 0 0 416 122;" xml:space="preserve">
<style type="text/css">
	.st0{fill:#FD5D83;}
	.st1{fill:#FFFFFF;}
	.st2{font-family:'DegularDisplay-Regular';}
	.st3{font-size:53.3145px;}
	.st4{fill:#FFFFFF;stroke:#FFFFFF;stroke-width:4;stroke-miterlimit:10;}
	.st5{fill:none;stroke:#FFFFFF;stroke-width:4;stroke-miterlimit:10;}
</style>
<g>
	
		<image style="overflow:visible;opacity:0.63;" width="417" height="125" xlink:href="E78A34F72427C859.png"  transform="matrix(1 0 0 1 2 -2)">
	</image>
	<g>
		<path class="st0" d="M356.5,102h-292C38.4,102,17,80.6,17,54.5v0C17,28.4,38.4,7,64.5,7h292C382.6,7,404,28.4,404,54.5v0
			C404,80.6,382.6,102,356.5,102z"/>
	</g>
</g>
<image style="overflow:visible;" width="576" height="1076" xlink:href="../../../../Desktop/Screen Shot 2020-05-17 at 1.26.18 PM.png"  transform="matrix(0.5 0 0 0.5 -442 -251)">
</image>
<text transform="matrix(1 0 0 1 131.2012 68.8037)" class="st1 st2 st3">Portfolio</text>
<line class="st4" x1="116" y1="54" x2="68" y2="54"/>
<polyline class="st5" points="81,39.5 66.5,54 81,68.5 "/>
</svg>
